<mxfile host="app.diagrams.net" agent="Mozilla/5.0 (Windows NT 10.0; Win64; x64) AppleWebKit/537.36 (KHTML, like Gecko) Chrome/128.0.0.0 Safari/537.36" version="24.7.14">
  <diagram name="PÃ¡gina-1" id="27KWpJ86i-a9mGw7MJi7">
    <mxGraphModel dx="800" dy="395" grid="1" gridSize="9" guides="1" tooltips="1" connect="1" arrows="1" fold="1" page="1" pageScale="1" pageWidth="1654" pageHeight="2336" math="0" shadow="0">
      <root>
        <mxCell id="0" />
        <mxCell id="1" parent="0" />
        <mxCell id="u_aKKNFCbhIiBZ6eUCo--21" value="" style="edgeStyle=orthogonalEdgeStyle;rounded=0;orthogonalLoop=1;jettySize=auto;html=1;entryX=0.194;entryY=0;entryDx=0;entryDy=0;entryPerimeter=0;exitX=0.989;exitY=0.131;exitDx=0;exitDy=0;exitPerimeter=0;labelBackgroundColor=none;strokeColor=#09555B;fontColor=default;endArrow=diamondThin;endFill=0;" parent="1" source="u_aKKNFCbhIiBZ6eUCo--5" target="u_aKKNFCbhIiBZ6eUCo--17" edge="1">
          <mxGeometry relative="1" as="geometry">
            <mxPoint x="1053" y="81" as="sourcePoint" />
            <mxPoint x="1121.984" y="467.8520000000001" as="targetPoint" />
          </mxGeometry>
        </mxCell>
        <mxCell id="JISIWDe4qFhiFwduZASn-1" style="edgeStyle=orthogonalEdgeStyle;rounded=0;orthogonalLoop=1;jettySize=auto;html=1;exitX=0.25;exitY=1;exitDx=0;exitDy=0;entryX=1.009;entryY=0.323;entryDx=0;entryDy=0;entryPerimeter=0;labelBackgroundColor=none;strokeColor=#09555B;fontColor=default;" parent="1" source="u_aKKNFCbhIiBZ6eUCo--5" target="-hAHwXTNGbDTIs2rf82L-44" edge="1">
          <mxGeometry relative="1" as="geometry">
            <mxPoint x="324" y="621" as="targetPoint" />
            <Array as="points">
              <mxPoint x="885" y="396" />
              <mxPoint x="334" y="396" />
              <mxPoint x="334" y="609" />
            </Array>
          </mxGeometry>
        </mxCell>
        <mxCell id="u_aKKNFCbhIiBZ6eUCo--5" value="&lt;p style=&quot;margin:0px;margin-top:4px;text-align:center;&quot;&gt;&lt;font face=&quot;Times New Roman&quot;&gt;&lt;b&gt;Usuario&lt;/b&gt;&lt;/font&gt;&lt;/p&gt;&lt;hr size=&quot;1&quot; style=&quot;border-style:solid;&quot;&gt;&lt;p style=&quot;margin:0px;margin-left:4px;&quot;&gt;&lt;span style=&quot;background-color: initial; font-family: i2VI71uYnSgNLLqTaDuw;&quot;&gt;- alias:String&lt;/span&gt;&lt;br&gt;&lt;/p&gt;&lt;p style=&quot;margin:0px;margin-left:4px;&quot;&gt;&lt;font face=&quot;i2VI71uYnSgNLLqTaDuw&quot;&gt;- cvu:Long&lt;/font&gt;&lt;/p&gt;&lt;p style=&quot;margin:0px;margin-left:4px;&quot;&gt;&lt;font style=&quot;background-color: initial;&quot; face=&quot;i2VI71uYnSgNLLqTaDuw&quot;&gt;- contrasena:&amp;nbsp;&lt;/font&gt;&lt;span style=&quot;background-color: initial; font-family: i2VI71uYnSgNLLqTaDuw;&quot;&gt;String&lt;/span&gt;&lt;span style=&quot;background-color: initial; font-family: i2VI71uYnSgNLLqTaDuw;&quot;&gt;&amp;nbsp;&lt;/span&gt;&lt;/p&gt;&lt;p style=&quot;margin:0px;margin-left:4px;&quot;&gt;&lt;span style=&quot;background-color: initial; font-family: i2VI71uYnSgNLLqTaDuw;&quot;&gt;- preguntasSeg: List&amp;lt;String&amp;gt;&lt;/span&gt;&lt;/p&gt;&lt;p style=&quot;margin:0px;margin-left:4px;&quot;&gt;&lt;font face=&quot;i2VI71uYnSgNLLqTaDuw&quot;&gt;- tarjeta: Tarjeta&lt;/font&gt;&lt;/p&gt;&lt;p style=&quot;margin:0px;margin-left:4px;&quot;&gt;&lt;font face=&quot;i2VI71uYnSgNLLqTaDuw&quot;&gt;- idUsuario: Long&lt;/font&gt;&lt;/p&gt;&lt;p style=&quot;margin:0px;margin-left:4px;&quot;&gt;&lt;font face=&quot;i2VI71uYnSgNLLqTaDuw&quot;&gt;- tickets: List&amp;lt;Integer&amp;gt;&lt;/font&gt;&lt;/p&gt;&lt;p style=&quot;margin:0px;margin-left:4px;&quot;&gt;&lt;font face=&quot;i2VI71uYnSgNLLqTaDuw&quot;&gt;- identidadVerif:boolean&lt;/font&gt;&lt;/p&gt;&lt;hr size=&quot;1&quot; style=&quot;border-style:solid;&quot;&gt;&lt;p style=&quot;margin:0px;margin-left:4px;&quot;&gt;&lt;span style=&quot;font-family: i2VI71uYnSgNLLqTaDuw; background-color: initial;&quot;&gt;+ elegirMetodo():void&lt;/span&gt;&lt;br&gt;&lt;/p&gt;&lt;p style=&quot;margin:0px;margin-left:4px;&quot;&gt;&lt;font face=&quot;i2VI71uYnSgNLLqTaDuw&quot;&gt;+ getTarjeta():Tarjeta&lt;/font&gt;&lt;/p&gt;&lt;p style=&quot;margin:0px;margin-left:4px;&quot;&gt;&lt;font face=&quot;i2VI71uYnSgNLLqTaDuw&quot;&gt;+ setTarjeta(Tarjeta tarjeta)&lt;/font&gt;&lt;/p&gt;&lt;p style=&quot;margin:0px;margin-left:4px;&quot;&gt;&lt;font face=&quot;i2VI71uYnSgNLLqTaDuw&quot;&gt;+ getContrasena():&lt;/font&gt;&lt;span style=&quot;font-family: i2VI71uYnSgNLLqTaDuw; background-color: initial;&quot;&gt;String&lt;/span&gt;&lt;/p&gt;&lt;p style=&quot;margin:0px;margin-left:4px;&quot;&gt;&lt;font face=&quot;i2VI71uYnSgNLLqTaDuw&quot;&gt;+ setContrasena():String&lt;/font&gt;&lt;/p&gt;&lt;p style=&quot;margin:0px;margin-left:4px;&quot;&gt;&lt;font face=&quot;i2VI71uYnSgNLLqTaDuw&quot;&gt;+ getAlias(&lt;/font&gt;&lt;span style=&quot;font-family: i2VI71uYnSgNLLqTaDuw; background-color: initial;&quot;&gt;):&lt;/span&gt;&lt;span style=&quot;font-family: i2VI71uYnSgNLLqTaDuw; background-color: initial;&quot;&gt;String&lt;/span&gt;&lt;/p&gt;&lt;p style=&quot;margin:0px;margin-left:4px;&quot;&gt;&lt;span style=&quot;font-family: i2VI71uYnSgNLLqTaDuw; background-color: initial;&quot;&gt;+ setAlias(String alias):&lt;/span&gt;&lt;span style=&quot;font-family: i2VI71uYnSgNLLqTaDuw; background-color: initial;&quot;&gt;void&lt;/span&gt;&lt;span style=&quot;font-family: i2VI71uYnSgNLLqTaDuw; background-color: initial;&quot;&gt;&amp;nbsp;&lt;/span&gt;&lt;span style=&quot;background-color: initial; font-family: i2VI71uYnSgNLLqTaDuw;&quot;&gt;&amp;nbsp;&lt;/span&gt;&lt;/p&gt;&lt;p style=&quot;margin:0px;margin-left:4px;&quot;&gt;&lt;span style=&quot;font-family: i2VI71uYnSgNLLqTaDuw; background-color: initial;&quot;&gt;+ getCvu():&lt;/span&gt;&lt;span style=&quot;font-family: i2VI71uYnSgNLLqTaDuw; background-color: initial;&quot;&gt;long&lt;/span&gt;&lt;/p&gt;&lt;p style=&quot;margin:0px;margin-left:4px;&quot;&gt;&lt;font face=&quot;i2VI71uYnSgNLLqTaDuw&quot;&gt;+ VerificarIdentidad():boolean&lt;/font&gt;&lt;/p&gt;&lt;p style=&quot;margin:0px;margin-left:4px;&quot;&gt;&lt;span style=&quot;font-family: i2VI71uYnSgNLLqTaDuw; background-color: initial;&quot;&gt;+ setCvu(&lt;/span&gt;&lt;span style=&quot;font-family: i2VI71uYnSgNLLqTaDuw; background-color: initial;&quot;&gt;long cvu&lt;/span&gt;&lt;span style=&quot;background-color: initial; font-family: i2VI71uYnSgNLLqTaDuw;&quot;&gt;):void&lt;/span&gt;&lt;/p&gt;&lt;p style=&quot;margin:0px;margin-left:4px;&quot;&gt;&lt;span style=&quot;font-family: i2VI71uYnSgNLLqTaDuw; background-color: initial;&quot;&gt;+ pedirAyuda():Ticket&lt;/span&gt;&lt;/p&gt;&lt;p style=&quot;margin:0px;margin-left:4px;&quot;&gt;&lt;span style=&quot;font-family: i2VI71uYnSgNLLqTaDuw; background-color: initial;&quot;&gt;+ responderTicket(String respuesta, int id):void&lt;/span&gt;&lt;/p&gt;&lt;p style=&quot;margin:0px;margin-left:4px;&quot;&gt;&lt;span style=&quot;font-family: i2VI71uYnSgNLLqTaDuw; background-color: initial;&quot;&gt;&lt;br&gt;&lt;/span&gt;&lt;/p&gt;" style="verticalAlign=top;align=left;overflow=fill;html=1;whiteSpace=wrap;labelBackgroundColor=none;fillColor=#FAD9D5;strokeColor=#D0CEE2;fontColor=#1A1A1A;" parent="1" vertex="1">
          <mxGeometry x="841" y="20" width="216" height="367" as="geometry" />
        </mxCell>
        <mxCell id="u_aKKNFCbhIiBZ6eUCo--23" value="" style="edgeStyle=orthogonalEdgeStyle;rounded=0;orthogonalLoop=1;jettySize=auto;html=1;labelBackgroundColor=none;strokeColor=#09555B;fontColor=default;" parent="1" source="u_aKKNFCbhIiBZ6eUCo--6" target="u_aKKNFCbhIiBZ6eUCo--17" edge="1">
          <mxGeometry relative="1" as="geometry">
            <mxPoint x="1307" y="458" as="targetPoint" />
          </mxGeometry>
        </mxCell>
        <mxCell id="u_aKKNFCbhIiBZ6eUCo--6" value="&lt;p style=&quot;margin:0px;margin-top:4px;text-align:center;&quot;&gt;&lt;b&gt;&amp;lt;&amp;lt;abstract&amp;gt;&amp;gt; Tarjeta&lt;/b&gt;&lt;/p&gt;&lt;hr size=&quot;1&quot; style=&quot;border-style:solid;&quot;&gt;&lt;p style=&quot;margin:0px;margin-left:4px;&quot;&gt;- nom_ape : String&lt;/p&gt;&lt;p style=&quot;margin:0px;margin-left:4px;&quot;&gt;- num_tarjeta: long&lt;/p&gt;&lt;p style=&quot;margin:0px;margin-left:4px;&quot;&gt;- fecha_since: String&lt;/p&gt;&lt;p style=&quot;margin:0px;margin-left:4px;&quot;&gt;- fecha_venc: String&lt;/p&gt;&lt;p style=&quot;margin:0px;margin-left:4px;&quot;&gt;- num_seguridad: int&lt;/p&gt;&lt;p style=&quot;margin:0px;margin-left:4px;&quot;&gt;- es_V: boolean&lt;/p&gt;&lt;p style=&quot;margin:0px;margin-left:4px;&quot;&gt;- cod_virtual: int&lt;/p&gt;&lt;p style=&quot;margin:0px;margin-left:4px;&quot;&gt;- tipo: String&lt;/p&gt;&lt;p style=&quot;margin:0px;margin-left:4px;&quot;&gt;- limD: double&lt;/p&gt;&lt;hr size=&quot;1&quot; style=&quot;border-style:solid;&quot;&gt;&lt;p style=&quot;margin: 0px 0px 0px 4px;&quot;&gt;&lt;font face=&quot;i2VI71uYnSgNLLqTaDuw&quot;&gt;+ getNum_seg():&lt;/font&gt;&lt;span style=&quot;font-family: i2VI71uYnSgNLLqTaDuw; background-color: initial;&quot;&gt;int&lt;/span&gt;&lt;/p&gt;&lt;p style=&quot;margin: 0px 0px 0px 4px;&quot;&gt;&lt;font face=&quot;i2VI71uYnSgNLLqTaDuw&quot;&gt;+&amp;nbsp; setNum_seg(&lt;/font&gt;&lt;span style=&quot;font-family: i2VI71uYnSgNLLqTaDuw; background-color: initial;&quot;&gt;int num&lt;/span&gt;&lt;span style=&quot;font-family: i2VI71uYnSgNLLqTaDuw; background-color: initial;&quot;&gt;):&lt;/span&gt;&lt;span style=&quot;font-family: i2VI71uYnSgNLLqTaDuw; background-color: initial;&quot;&gt;void&lt;/span&gt;&lt;/p&gt;&lt;p style=&quot;margin: 0px 0px 0px 4px;&quot;&gt;&lt;font face=&quot;i2VI71uYnSgNLLqTaDuw&quot;&gt;+ getNom_ape():&lt;/font&gt;&lt;span style=&quot;font-family: i2VI71uYnSgNLLqTaDuw; background-color: initial;&quot;&gt;String&lt;/span&gt;&lt;/p&gt;&lt;p style=&quot;margin: 0px 0px 0px 4px;&quot;&gt;&lt;font face=&quot;i2VI71uYnSgNLLqTaDuw&quot;&gt;+ setNom_ape(&lt;/font&gt;&lt;span style=&quot;font-family: i2VI71uYnSgNLLqTaDuw; background-color: initial;&quot;&gt;String nom_ape&lt;/span&gt;&lt;span style=&quot;font-family: i2VI71uYnSgNLLqTaDuw; background-color: initial;&quot;&gt;):&lt;/span&gt;&lt;span style=&quot;font-family: i2VI71uYnSgNLLqTaDuw; background-color: initial;&quot;&gt;void&lt;/span&gt;&lt;/p&gt;&lt;p style=&quot;margin: 0px 0px 0px 4px;&quot;&gt;&lt;font face=&quot;i2VI71uYnSgNLLqTaDuw&quot;&gt;+ getFecha_S():&lt;/font&gt;&lt;span style=&quot;font-family: i2VI71uYnSgNLLqTaDuw; background-color: initial;&quot;&gt;String&lt;/span&gt;&lt;/p&gt;&lt;p style=&quot;margin: 0px 0px 0px 4px;&quot;&gt;&lt;font face=&quot;i2VI71uYnSgNLLqTaDuw&quot;&gt;+ set&lt;/font&gt;&lt;span style=&quot;font-family: i2VI71uYnSgNLLqTaDuw;&quot;&gt;Fecha_S&lt;/span&gt;&lt;font face=&quot;i2VI71uYnSgNLLqTaDuw&quot;&gt;(&lt;/font&gt;&lt;span style=&quot;font-family: i2VI71uYnSgNLLqTaDuw; background-color: initial;&quot;&gt;String Fecha_S&lt;/span&gt;&lt;span style=&quot;font-family: i2VI71uYnSgNLLqTaDuw; background-color: initial;&quot;&gt;):&lt;/span&gt;&lt;span style=&quot;font-family: i2VI71uYnSgNLLqTaDuw; background-color: initial;&quot;&gt;void&lt;/span&gt;&lt;/p&gt;&lt;p style=&quot;margin: 0px 0px 0px 4px;&quot;&gt;&lt;font face=&quot;i2VI71uYnSgNLLqTaDuw&quot;&gt;+ getFecha_venc():&lt;/font&gt;&lt;span style=&quot;font-family: i2VI71uYnSgNLLqTaDuw; background-color: initial;&quot;&gt;String&lt;/span&gt;&lt;/p&gt;&lt;p style=&quot;margin: 0px 0px 0px 4px;&quot;&gt;&lt;font face=&quot;i2VI71uYnSgNLLqTaDuw&quot;&gt;+ set&lt;/font&gt;&lt;span style=&quot;font-family: i2VI71uYnSgNLLqTaDuw;&quot;&gt;Fecha_venc&lt;/span&gt;&lt;font face=&quot;i2VI71uYnSgNLLqTaDuw&quot;&gt;(&lt;/font&gt;&lt;span style=&quot;font-family: i2VI71uYnSgNLLqTaDuw; background-color: initial;&quot;&gt;String Fecha_venc&lt;/span&gt;&lt;span style=&quot;font-family: i2VI71uYnSgNLLqTaDuw; background-color: initial;&quot;&gt;):&lt;/span&gt;&lt;span style=&quot;font-family: i2VI71uYnSgNLLqTaDuw; background-color: initial;&quot;&gt;void&lt;/span&gt;&lt;/p&gt;&lt;p style=&quot;margin: 0px 0px 0px 4px;&quot;&gt;&lt;font face=&quot;i2VI71uYnSgNLLqTaDuw&quot;&gt;+ getNum_V():&amp;nbsp;&lt;/font&gt;&lt;span style=&quot;font-family: i2VI71uYnSgNLLqTaDuw; background-color: initial;&quot;&gt;int&lt;/span&gt;&lt;span style=&quot;font-family: i2VI71uYnSgNLLqTaDuw; background-color: initial;&quot;&gt;&amp;nbsp;&lt;/span&gt;&lt;/p&gt;&lt;p style=&quot;margin: 0px 0px 0px 4px;&quot;&gt;&lt;font face=&quot;i2VI71uYnSgNLLqTaDuw&quot;&gt;+ setNum_V(int cod_Virtual):&lt;/font&gt;&lt;span style=&quot;font-family: i2VI71uYnSgNLLqTaDuw; background-color: initial;&quot;&gt;void&lt;/span&gt;&lt;/p&gt;&lt;p style=&quot;margin: 0px 0px 0px 4px;&quot;&gt;&lt;font face=&quot;i2VI71uYnSgNLLqTaDuw&quot;&gt;+ getEs_V(boolean V):&lt;/font&gt;&lt;span style=&quot;font-family: i2VI71uYnSgNLLqTaDuw; background-color: initial;&quot;&gt;boolean&lt;/span&gt;&lt;/p&gt;&lt;p style=&quot;margin: 0px 0px 0px 4px;&quot;&gt;&lt;font face=&quot;i2VI71uYnSgNLLqTaDuw&quot;&gt;+ getEs_V():&lt;/font&gt;&lt;span style=&quot;font-family: i2VI71uYnSgNLLqTaDuw; background-color: initial;&quot;&gt;void&amp;nbsp;&lt;/span&gt;&lt;/p&gt;&lt;p style=&quot;margin: 0px 0px 0px 4px;&quot;&gt;&lt;font face=&quot;i2VI71uYnSgNLLqTaDuw&quot;&gt;+ getLimD():&lt;/font&gt;&lt;span style=&quot;font-family: i2VI71uYnSgNLLqTaDuw; background-color: initial;&quot;&gt;double&lt;/span&gt;&lt;span style=&quot;font-family: i2VI71uYnSgNLLqTaDuw; background-color: initial;&quot;&gt;&amp;nbsp;&lt;/span&gt;&lt;/p&gt;&lt;p style=&quot;margin: 0px 0px 0px 4px;&quot;&gt;&lt;font face=&quot;i2VI71uYnSgNLLqTaDuw&quot;&gt;+ setLimD(&lt;/font&gt;&lt;span style=&quot;font-family: i2VI71uYnSgNLLqTaDuw; background-color: initial;&quot;&gt;double limD&lt;/span&gt;&lt;span style=&quot;font-family: i2VI71uYnSgNLLqTaDuw; background-color: initial;&quot;&gt;):&lt;/span&gt;&lt;span style=&quot;font-family: i2VI71uYnSgNLLqTaDuw; background-color: initial;&quot;&gt;void&lt;/span&gt;&lt;/p&gt;" style="verticalAlign=top;align=left;overflow=fill;html=1;whiteSpace=wrap;labelBackgroundColor=none;fillColor=#FAD9D5;strokeColor=#D0CEE2;fontColor=#1A1A1A;" parent="1" vertex="1">
          <mxGeometry x="1467" y="40" width="216" height="392" as="geometry" />
        </mxCell>
        <mxCell id="u_aKKNFCbhIiBZ6eUCo--16" value="" style="edgeStyle=orthogonalEdgeStyle;rounded=0;orthogonalLoop=1;jettySize=auto;html=1;labelBackgroundColor=none;strokeColor=#09555B;fontColor=default;" parent="1" source="u_aKKNFCbhIiBZ6eUCo--10" target="u_aKKNFCbhIiBZ6eUCo--12" edge="1">
          <mxGeometry relative="1" as="geometry" />
        </mxCell>
        <mxCell id="u_aKKNFCbhIiBZ6eUCo--10" value="&lt;p style=&quot;margin:0px;margin-top:4px;text-align:center;&quot;&gt;&lt;b&gt;Mail_Manager&lt;/b&gt;&lt;/p&gt;&lt;p style=&quot;margin:0px;margin-left:4px;&quot;&gt;&lt;br&gt;&lt;/p&gt;" style="verticalAlign=top;align=left;overflow=fill;html=1;whiteSpace=wrap;labelBackgroundColor=none;fillColor=#FAD9D5;strokeColor=#D0CEE2;fontColor=#1A1A1A;" parent="1" vertex="1">
          <mxGeometry x="36" y="252" width="160" height="90" as="geometry" />
        </mxCell>
        <mxCell id="u_aKKNFCbhIiBZ6eUCo--15" value="" style="edgeStyle=orthogonalEdgeStyle;rounded=0;orthogonalLoop=1;jettySize=auto;html=1;labelBackgroundColor=none;strokeColor=#09555B;fontColor=default;" parent="1" source="u_aKKNFCbhIiBZ6eUCo--11" target="u_aKKNFCbhIiBZ6eUCo--12" edge="1">
          <mxGeometry relative="1" as="geometry" />
        </mxCell>
        <mxCell id="u_aKKNFCbhIiBZ6eUCo--11" value="&lt;p style=&quot;margin:0px;margin-top:4px;text-align:center;&quot;&gt;&lt;b&gt;SMS_manager&lt;/b&gt;&lt;/p&gt;&lt;p style=&quot;margin:0px;margin-left:4px;&quot;&gt;&lt;br&gt;&lt;/p&gt;" style="verticalAlign=top;align=left;overflow=fill;html=1;whiteSpace=wrap;labelBackgroundColor=none;fillColor=#FAD9D5;strokeColor=#D0CEE2;fontColor=#1A1A1A;" parent="1" vertex="1">
          <mxGeometry x="234" y="252" width="160" height="90" as="geometry" />
        </mxCell>
        <mxCell id="u_aKKNFCbhIiBZ6eUCo--12" value="&lt;p style=&quot;margin:0px;margin-top:4px;text-align:center;&quot;&gt;&lt;b&gt;Servicios handler&lt;/b&gt;&lt;/p&gt;&lt;hr size=&quot;1&quot; style=&quot;border-style:solid;&quot;&gt;&lt;p style=&quot;margin:0px;margin-left:4px;&quot;&gt;&lt;br&gt;&lt;/p&gt;&lt;p style=&quot;margin:0px;margin-left:4px;&quot;&gt;&lt;br&gt;&lt;/p&gt;" style="verticalAlign=top;align=left;overflow=fill;html=1;whiteSpace=wrap;labelBackgroundColor=none;fillColor=#FAD9D5;strokeColor=#D0CEE2;fontColor=#1A1A1A;" parent="1" vertex="1">
          <mxGeometry x="135" y="400" width="160" height="90" as="geometry" />
        </mxCell>
        <mxCell id="u_aKKNFCbhIiBZ6eUCo--17" value="&lt;p style=&quot;margin:0px;margin-top:4px;text-align:center;&quot;&gt;&lt;b&gt;Wallet&lt;/b&gt;&lt;/p&gt;&lt;hr size=&quot;1&quot; style=&quot;border-style:solid;&quot;&gt;&lt;p style=&quot;margin:0px;margin-left:4px;&quot;&gt;&lt;span style=&quot;background-color: initial;&quot;&gt;- Cards: List &amp;lt;tarjeta&amp;gt;&lt;/span&gt;&lt;br&gt;&lt;/p&gt;&lt;p style=&quot;margin:0px;margin-left:4px;&quot;&gt;- static lim_dia: double&lt;/p&gt;&lt;p style=&quot;margin:0px;margin-left:4px;&quot;&gt;- static lim_mes: double&amp;nbsp;&lt;/p&gt;&lt;p style=&quot;margin:0px;margin-left:4px;&quot;&gt;- transaction: List&amp;lt;transaccion&amp;gt;&lt;/p&gt;&lt;p style=&quot;margin:0px;margin-left:4px;&quot;&gt;- balance: double&lt;/p&gt;&lt;p style=&quot;margin:0px;margin-left:4px;&quot;&gt;- monedas_disponibles: List&amp;lt;monedaWallet&amp;gt;&lt;/p&gt;&lt;p style=&quot;margin:0px;margin-left:4px;&quot;&gt;- ContactosD: List &amp;lt;Contacto&amp;gt;&lt;/p&gt;&lt;hr size=&quot;1&quot; style=&quot;border-style:solid;&quot;&gt;&lt;p style=&quot;margin: 0px 0px 0px 4px;&quot;&gt;&lt;font style=&quot;&quot; color=&quot;#000000&quot;&gt;+ calcularBalance():&lt;/font&gt;&lt;span style=&quot;color: rgb(0, 0, 0); background-color: initial;&quot;&gt;double&lt;/span&gt;&lt;/p&gt;&lt;div style=&quot;&quot;&gt;&lt;font color=&quot;#000000&quot;&gt;+ AgregarContacto(Contacto contact):&lt;/font&gt;&lt;span style=&quot;color: rgb(0, 0, 0); background-color: initial;&quot;&gt;void&lt;/span&gt;&lt;/div&gt;&lt;div style=&quot;&quot;&gt;&lt;font color=&quot;#000000&quot;&gt;+ AgregarTransaction(Transaccion trans):&lt;/font&gt;&lt;span style=&quot;color: rgb(0, 0, 0); background-color: initial;&quot;&gt;void&lt;/span&gt;&lt;/div&gt;&lt;div style=&quot;&quot;&gt;&lt;font color=&quot;#000000&quot;&gt;+getLimD():&lt;/font&gt;&lt;span style=&quot;color: rgb(0, 0, 0); background-color: initial;&quot;&gt;double&lt;/span&gt;&lt;span style=&quot;color: rgb(0, 0, 0); background-color: initial;&quot;&gt;&amp;nbsp;&lt;/span&gt;&lt;/div&gt;&lt;div style=&quot;&quot;&gt;&lt;font color=&quot;#000000&quot;&gt;+setLimd(&lt;/font&gt;&lt;span style=&quot;color: rgb(0, 0, 0); background-color: initial;&quot;&gt;double lim&lt;/span&gt;&lt;span style=&quot;color: rgb(0, 0, 0); background-color: initial;&quot;&gt;):&lt;/span&gt;&lt;span style=&quot;color: rgb(0, 0, 0); background-color: initial;&quot;&gt;void&lt;/span&gt;&lt;/div&gt;&lt;div style=&quot;&quot;&gt;&lt;div style=&quot;&quot;&gt;&lt;font color=&quot;#000000&quot;&gt;+ getLimM():&lt;/font&gt;&lt;span style=&quot;color: rgb(0, 0, 0); background-color: initial;&quot;&gt;double&lt;/span&gt;&lt;/div&gt;&lt;div style=&quot;&quot;&gt;&lt;font style=&quot;&quot; color=&quot;#000000&quot;&gt;+setLimM(&lt;/font&gt;&lt;span style=&quot;color: rgb(0, 0, 0); background-color: initial;&quot;&gt;double lim&lt;/span&gt;&lt;span style=&quot;color: rgb(0, 0, 0); background-color: initial;&quot;&gt;):&lt;/span&gt;&lt;span style=&quot;color: rgb(0, 0, 0); background-color: initial;&quot;&gt;void&lt;/span&gt;&lt;/div&gt;&lt;div style=&quot;&quot;&gt;&lt;span style=&quot;color: rgb(0, 0, 0); background-color: initial;&quot;&gt;+ transferir(MonedaWallet cantidad, long adress):void&lt;/span&gt;&lt;/div&gt;&lt;div style=&quot;&quot;&gt;&lt;font color=&quot;#000000&quot;&gt;+ transferir(MonedaWallet, String alias):void&lt;/font&gt;&lt;/div&gt;&lt;div style=&quot;&quot;&gt;&lt;font color=&quot;#000000&quot;&gt;+ recibir(MonedaWallet, String alias):void&lt;/font&gt;&lt;/div&gt;&lt;div style=&quot;&quot;&gt;&lt;span style=&quot;color: rgb(0, 0, 0); background-color: initial;&quot;&gt;+ recibir(MonedaWallet cantidad):void&lt;/span&gt;&lt;/div&gt;&lt;div style=&quot;&quot;&gt;&lt;span style=&quot;color: rgb(0, 0, 0); background-color: initial;&quot;&gt;+ comprarCrypto(MonedaWallet aComprar, Fiat poseida):void&lt;/span&gt;&lt;/div&gt;&lt;div style=&quot;&quot;&gt;&lt;span style=&quot;color: rgb(0, 0, 0); background-color: initial;&quot;&gt;+ venderCrypto(Fiat poseida, Crypto aVender):void&lt;/span&gt;&lt;/div&gt;&lt;div style=&quot;&quot;&gt;&lt;font color=&quot;#000000&quot;&gt;+ ingresarDeFi(Crypto monto):void&lt;/font&gt;&lt;/div&gt;&lt;div style=&quot;&quot;&gt;&lt;font color=&quot;#000000&quot;&gt;+ extraerDeFi(Crypto monto):void&lt;/font&gt;&lt;/div&gt;&lt;div style=&quot;&quot;&gt;&lt;font color=&quot;#000000&quot;&gt;+ swap(Crypto poseida, Crypto aCambiar):void&lt;/font&gt;&lt;/div&gt;&lt;/div&gt;" style="verticalAlign=top;align=left;overflow=fill;html=1;whiteSpace=wrap;labelBackgroundColor=none;fillColor=#FAD9D5;strokeColor=#D0CEE2;fontColor=#1A1A1A;" parent="1" vertex="1">
          <mxGeometry x="1070" y="721" width="252" height="431" as="geometry" />
        </mxCell>
        <mxCell id="-hAHwXTNGbDTIs2rf82L-5" style="edgeStyle=orthogonalEdgeStyle;rounded=0;orthogonalLoop=1;jettySize=auto;html=1;exitX=0;exitY=0.5;exitDx=0;exitDy=0;entryX=1;entryY=0.75;entryDx=0;entryDy=0;labelBackgroundColor=none;strokeColor=#09555B;fontColor=default;" parent="1" source="u_aKKNFCbhIiBZ6eUCo--24" target="u_aKKNFCbhIiBZ6eUCo--17" edge="1">
          <mxGeometry relative="1" as="geometry" />
        </mxCell>
        <mxCell id="u_aKKNFCbhIiBZ6eUCo--24" value="&lt;p style=&quot;margin:0px;margin-top:4px;text-align:center;&quot;&gt;&lt;b&gt;monedaWallet&lt;/b&gt;&lt;/p&gt;&lt;hr size=&quot;1&quot; style=&quot;border-style:solid;&quot;&gt;&lt;p style=&quot;margin:0px;margin-left:4px;&quot;&gt;- tipo: moneda&lt;/p&gt;&lt;p style=&quot;margin:0px;margin-left:4px;&quot;&gt;-saldo: double&lt;/p&gt;&lt;hr size=&quot;1&quot; style=&quot;border-style:solid;&quot;&gt;&lt;p style=&quot;margin:0px;margin-left:4px;&quot;&gt;+&amp;nbsp;&lt;span style=&quot;font-family: i2VI71uYnSgNLLqTaDuw; color: rgb(0, 0, 0); background-color: initial;&quot;&gt;getTipo():&lt;/span&gt;&lt;span style=&quot;background-color: initial;&quot;&gt;moneda&lt;/span&gt;&lt;/p&gt;&lt;p style=&quot;color: rgb(0, 0, 0); margin: 0px 0px 0px 4px;&quot;&gt;&lt;span style=&quot;font-family: i2VI71uYnSgNLLqTaDuw; background-color: initial;&quot;&gt;+ getSaldo():&lt;/span&gt;&lt;span style=&quot;font-family: i2VI71uYnSgNLLqTaDuw; background-color: initial;&quot;&gt;double&lt;/span&gt;&lt;span style=&quot;font-family: i2VI71uYnSgNLLqTaDuw; background-color: initial;&quot;&gt;&amp;nbsp;&lt;/span&gt;&lt;br&gt;&lt;/p&gt;&lt;p style=&quot;color: rgb(0, 0, 0); margin: 0px 0px 0px 4px;&quot;&gt;&lt;font face=&quot;i2VI71uYnSgNLLqTaDuw&quot;&gt;+ setSaldo&lt;/font&gt;&lt;span style=&quot;font-family: i2VI71uYnSgNLLqTaDuw; background-color: initial;&quot;&gt;(double S):void&lt;/span&gt;&lt;/p&gt;" style="verticalAlign=top;align=left;overflow=fill;html=1;whiteSpace=wrap;labelBackgroundColor=none;fillColor=#FAD9D5;strokeColor=#D0CEE2;fontColor=#1A1A1A;" parent="1" vertex="1">
          <mxGeometry x="1377" y="855" width="187" height="162" as="geometry" />
        </mxCell>
        <mxCell id="KoDN8rbR7t0T_RA7ty70-3" style="edgeStyle=orthogonalEdgeStyle;rounded=0;orthogonalLoop=1;jettySize=auto;html=1;labelBackgroundColor=none;strokeColor=#09555B;fontColor=default;" parent="1" source="u_aKKNFCbhIiBZ6eUCo--26" edge="1">
          <mxGeometry relative="1" as="geometry">
            <mxPoint x="2095" y="1062" as="targetPoint" />
          </mxGeometry>
        </mxCell>
        <mxCell id="u_aKKNFCbhIiBZ6eUCo--26" value="&lt;p style=&quot;margin:0px;margin-top:4px;text-align:center;&quot;&gt;&lt;b&gt;Manager Moneda&lt;/b&gt;&lt;/p&gt;&lt;p style=&quot;margin:0px;margin-top:4px;text-align:center;&quot;&gt;&lt;b&gt;Api&lt;/b&gt;&lt;/p&gt;" style="verticalAlign=top;align=left;overflow=fill;html=1;whiteSpace=wrap;labelBackgroundColor=none;fillColor=#FAD9D5;strokeColor=#D0CEE2;fontColor=#1A1A1A;" parent="1" vertex="1">
          <mxGeometry x="2025" y="840" width="140" height="60" as="geometry" />
        </mxCell>
        <mxCell id="ZmTbWM2r-2BBnVFQszrl-16" style="edgeStyle=orthogonalEdgeStyle;rounded=0;orthogonalLoop=1;jettySize=auto;html=1;strokeColor=#09555B;fontColor=default;entryX=0.996;entryY=0.466;entryDx=0;entryDy=0;entryPerimeter=0;labelBackgroundColor=none;endArrow=diamondThin;endFill=0;" parent="1" target="u_aKKNFCbhIiBZ6eUCo--24" edge="1">
          <mxGeometry relative="1" as="geometry">
            <mxPoint x="1575" y="953.97" as="targetPoint" />
            <mxPoint x="1710" y="882.0044827586207" as="sourcePoint" />
          </mxGeometry>
        </mxCell>
        <mxCell id="ZmTbWM2r-2BBnVFQszrl-21" style="edgeStyle=orthogonalEdgeStyle;rounded=0;orthogonalLoop=1;jettySize=auto;html=1;exitX=0.5;exitY=0;exitDx=0;exitDy=0;entryX=0.5;entryY=1;entryDx=0;entryDy=0;strokeColor=#09555B;fontColor=default;labelBackgroundColor=none;" parent="1" source="u_aKKNFCbhIiBZ6eUCo--27" target="ZmTbWM2r-2BBnVFQszrl-20" edge="1">
          <mxGeometry relative="1" as="geometry" />
        </mxCell>
        <mxCell id="u_aKKNFCbhIiBZ6eUCo--27" value="&lt;p style=&quot;margin:0px;margin-top:4px;text-align:center;&quot;&gt;&lt;b&gt;&amp;lt;&amp;lt;abstract&amp;gt;&amp;gt;&amp;nbsp; Moneda&lt;/b&gt;&lt;/p&gt;&lt;hr size=&quot;1&quot; style=&quot;border-style:solid;&quot;&gt;&lt;p style=&quot;margin:0px;margin-left:4px;&quot;&gt;-nombre: String&lt;/p&gt;&lt;p style=&quot;margin:0px;margin-left:4px;&quot;&gt;-cotizacion: double&lt;/p&gt;&lt;hr size=&quot;1&quot; style=&quot;border-style:solid;&quot;&gt;&lt;p style=&quot;margin:0px;margin-left:4px;&quot;&gt;+&lt;span style=&quot;font-family: i2VI71uYnSgNLLqTaDuw; color: rgb(0, 0, 0); background-color: initial;&quot;&gt;&amp;nbsp;getNombre():&lt;/span&gt;&lt;span style=&quot;color: rgb(0, 0, 0); font-family: i2VI71uYnSgNLLqTaDuw; background-color: initial;&quot;&gt;String&lt;/span&gt;&lt;span style=&quot;color: rgb(0, 0, 0); font-family: i2VI71uYnSgNLLqTaDuw; background-color: initial;&quot;&gt;&amp;nbsp;&lt;/span&gt;&lt;/p&gt;&lt;p style=&quot;color: rgb(0, 0, 0); margin: 0px 0px 0px 4px;&quot;&gt;&lt;font face=&quot;i2VI71uYnSgNLLqTaDuw&quot;&gt;+ setNombre(&lt;/font&gt;&lt;span style=&quot;font-family: i2VI71uYnSgNLLqTaDuw; background-color: initial;&quot;&gt;String nom&lt;/span&gt;&lt;span style=&quot;font-family: i2VI71uYnSgNLLqTaDuw; background-color: initial;&quot;&gt;):void&lt;/span&gt;&lt;/p&gt;&lt;p style=&quot;color: rgb(0, 0, 0); margin: 0px 0px 0px 4px;&quot;&gt;&lt;font face=&quot;i2VI71uYnSgNLLqTaDuw&quot;&gt;+ abstract calcularCotizacion(Moneda cambio):&lt;/font&gt;&lt;span style=&quot;font-family: i2VI71uYnSgNLLqTaDuw; background-color: initial;&quot;&gt;double&lt;/span&gt;&lt;/p&gt;" style="verticalAlign=top;align=left;overflow=fill;html=1;whiteSpace=wrap;labelBackgroundColor=none;fillColor=#FAD9D5;strokeColor=#D0CEE2;fontColor=#1A1A1A;" parent="1" vertex="1">
          <mxGeometry x="1710" y="828" width="225" height="144" as="geometry" />
        </mxCell>
        <mxCell id="-hAHwXTNGbDTIs2rf82L-2" value="0,1,..,n" style="text;html=1;align=center;verticalAlign=middle;resizable=0;points=[];autosize=1;strokeColor=none;fillColor=none;labelBackgroundColor=none;fontColor=#1A1A1A;" parent="1" vertex="1">
          <mxGeometry x="1314" y="945" width="63" height="27" as="geometry" />
        </mxCell>
        <mxCell id="-hAHwXTNGbDTIs2rf82L-16" value="&lt;p style=&quot;margin:0px;margin-top:4px;text-align:center;&quot;&gt;&lt;b&gt;Persona&lt;/b&gt;&lt;/p&gt;&lt;hr size=&quot;1&quot; style=&quot;border-style:solid;&quot;&gt;&lt;p style=&quot;margin:0px;margin-left:4px;&quot;&gt;-nombre: String&lt;/p&gt;&lt;p style=&quot;margin:0px;margin-left:4px;&quot;&gt;-apellido: String&lt;/p&gt;&lt;p style=&quot;margin:0px;margin-left:4px;&quot;&gt;-telefono: long&lt;/p&gt;&lt;p style=&quot;margin:0px;margin-left:4px;&quot;&gt;-correo: String&lt;/p&gt;&lt;p style=&quot;margin:0px;margin-left:4px;&quot;&gt;-pais:String&lt;/p&gt;&lt;hr size=&quot;1&quot; style=&quot;border-style:solid;&quot;&gt;&lt;p style=&quot;margin: 0px 0px 0px 4px;&quot;&gt;&lt;font face=&quot;i2VI71uYnSgNLLqTaDuw&quot;&gt;+ getDni():&lt;/font&gt;&lt;span style=&quot;font-family: i2VI71uYnSgNLLqTaDuw; background-color: initial;&quot;&gt;&amp;nbsp;&lt;/span&gt;&lt;span style=&quot;font-family: i2VI71uYnSgNLLqTaDuw; background-color: initial;&quot;&gt;long&lt;/span&gt;&lt;span style=&quot;font-family: i2VI71uYnSgNLLqTaDuw; background-color: initial;&quot;&gt;&amp;nbsp;&lt;/span&gt;&lt;/p&gt;&lt;p style=&quot;margin: 0px 0px 0px 4px;&quot;&gt;&lt;font face=&quot;i2VI71uYnSgNLLqTaDuw&quot;&gt;+ setDni (&lt;/font&gt;&lt;span style=&quot;font-family: i2VI71uYnSgNLLqTaDuw; background-color: initial;&quot;&gt;long dni&lt;/span&gt;&lt;span style=&quot;font-family: i2VI71uYnSgNLLqTaDuw; background-color: initial;&quot;&gt;):&lt;/span&gt;&lt;span style=&quot;font-family: i2VI71uYnSgNLLqTaDuw; background-color: initial;&quot;&gt;void&lt;/span&gt;&lt;span style=&quot;font-family: i2VI71uYnSgNLLqTaDuw; background-color: initial;&quot;&gt;&amp;nbsp;&lt;/span&gt;&lt;/p&gt;&lt;p style=&quot;margin: 0px 0px 0px 4px;&quot;&gt;&lt;font face=&quot;i2VI71uYnSgNLLqTaDuw&quot;&gt;+ getNombre():&lt;/font&gt;&lt;span style=&quot;font-family: i2VI71uYnSgNLLqTaDuw; background-color: initial;&quot;&gt;String&lt;/span&gt;&lt;/p&gt;&lt;p style=&quot;margin: 0px 0px 0px 4px;&quot;&gt;&lt;font face=&quot;i2VI71uYnSgNLLqTaDuw&quot;&gt;+ setNombre(&lt;/font&gt;&lt;span style=&quot;font-family: i2VI71uYnSgNLLqTaDuw; background-color: initial;&quot;&gt;String nom&lt;/span&gt;&lt;span style=&quot;font-family: i2VI71uYnSgNLLqTaDuw; background-color: initial;&quot;&gt;):&lt;/span&gt;&lt;span style=&quot;font-family: i2VI71uYnSgNLLqTaDuw; background-color: initial;&quot;&gt;void&lt;/span&gt;&lt;/p&gt;&lt;p style=&quot;margin: 0px 0px 0px 4px;&quot;&gt;&lt;font face=&quot;i2VI71uYnSgNLLqTaDuw&quot;&gt;+ String getApellido(String ape)&lt;/font&gt;&lt;/p&gt;&lt;p style=&quot;margin: 0px 0px 0px 4px;&quot;&gt;&lt;font face=&quot;i2VI71uYnSgNLLqTaDuw&quot;&gt;+ setApellido():&lt;/font&gt;&lt;span style=&quot;font-family: i2VI71uYnSgNLLqTaDuw; background-color: initial;&quot;&gt;void&lt;/span&gt;&lt;/p&gt;&lt;p style=&quot;margin: 0px 0px 0px 4px;&quot;&gt;&lt;font face=&quot;i2VI71uYnSgNLLqTaDuw&quot;&gt;+ getCorreo():&lt;/font&gt;&lt;span style=&quot;font-family: i2VI71uYnSgNLLqTaDuw; background-color: initial;&quot;&gt;String&lt;/span&gt;&lt;/p&gt;&lt;p style=&quot;margin: 0px 0px 0px 4px;&quot;&gt;&lt;font face=&quot;i2VI71uYnSgNLLqTaDuw&quot;&gt;+ setCorreo(&lt;/font&gt;&lt;span style=&quot;font-family: i2VI71uYnSgNLLqTaDuw; background-color: initial;&quot;&gt;String correo&lt;/span&gt;&lt;font style=&quot;background-color: initial;&quot; face=&quot;i2VI71uYnSgNLLqTaDuw&quot;&gt;):&lt;/font&gt;&lt;span style=&quot;background-color: initial; font-family: i2VI71uYnSgNLLqTaDuw;&quot;&gt;void&lt;/span&gt;&lt;span style=&quot;background-color: initial; font-family: i2VI71uYnSgNLLqTaDuw;&quot;&gt;&amp;nbsp;&lt;/span&gt;&lt;/p&gt;&lt;p style=&quot;margin: 0px 0px 0px 4px;&quot;&gt;&lt;font face=&quot;i2VI71uYnSgNLLqTaDuw&quot;&gt;+ getPais():&lt;/font&gt;&lt;span style=&quot;font-family: i2VI71uYnSgNLLqTaDuw; background-color: initial;&quot;&gt;String&lt;/span&gt;&lt;/p&gt;&lt;p style=&quot;margin: 0px 0px 0px 4px;&quot;&gt;&lt;font face=&quot;i2VI71uYnSgNLLqTaDuw&quot;&gt;+ setPais(&lt;/font&gt;&lt;span style=&quot;font-family: i2VI71uYnSgNLLqTaDuw; background-color: initial;&quot;&gt;String Pais&lt;/span&gt;&lt;span style=&quot;font-family: i2VI71uYnSgNLLqTaDuw; background-color: initial;&quot;&gt;):&lt;/span&gt;&lt;span style=&quot;font-family: i2VI71uYnSgNLLqTaDuw; background-color: initial;&quot;&gt;void&lt;/span&gt;&lt;span style=&quot;font-family: i2VI71uYnSgNLLqTaDuw; background-color: initial;&quot;&gt;&amp;nbsp;&lt;/span&gt;&lt;/p&gt;" style="verticalAlign=top;align=left;overflow=fill;html=1;whiteSpace=wrap;labelBackgroundColor=none;fillColor=#FAD9D5;strokeColor=#D0CEE2;fontColor=#1A1A1A;" parent="1" vertex="1">
          <mxGeometry x="518.5" y="20" width="160" height="297" as="geometry" />
        </mxCell>
        <mxCell id="-hAHwXTNGbDTIs2rf82L-33" value="&lt;p style=&quot;margin:0px;margin-top:4px;text-align:center;&quot;&gt;&lt;b&gt;Kernel(sistema)&lt;/b&gt;&lt;/p&gt;&lt;hr size=&quot;1&quot; style=&quot;border-style:solid;&quot;&gt;&lt;p style=&quot;margin:0px;margin-left:4px;&quot;&gt;- STATIC Stock: List&amp;lt;monedaWallet&amp;gt;&lt;/p&gt;&lt;p style=&quot;margin:0px;margin-left:4px;&quot;&gt;- Static gestionSoporte: soporte&lt;/p&gt;&lt;p style=&quot;margin:0px;margin-left:4px;&quot;&gt;-gestionSeguridad:seguridad&lt;/p&gt;&lt;hr size=&quot;1&quot; style=&quot;border-style:solid;&quot;&gt;&lt;p style=&quot;margin:0px;margin-left:4px;&quot;&gt;+&amp;nbsp;&lt;span style=&quot;background-color: initial;&quot; class=&quot;hljs-title function_&quot;&gt;agregarMonedas&lt;/span&gt;&lt;span style=&quot;background-color: initial;&quot; class=&quot;hljs-params&quot;&gt;(monedaWallet m):v&lt;/span&gt;&lt;span style=&quot;background-color: initial;&quot;&gt;oid&lt;/span&gt;&lt;/p&gt;&lt;p style=&quot;margin:0px;margin-left:4px;&quot;&gt;&lt;span class=&quot;hljs-type&quot;&gt;+&amp;nbsp;&lt;/span&gt;&lt;span class=&quot;hljs-title function_&quot;&gt;retirarMonedas(monedaWallet m):&lt;/span&gt;&lt;span style=&quot;background-color: initial;&quot; class=&quot;hljs-type&quot;&gt;boolean&lt;/span&gt;&lt;span style=&quot;background-color: initial;&quot;&gt;&amp;nbsp;&lt;/span&gt;&lt;span style=&quot;background-color: initial;&quot;&gt;&lt;br&gt;&lt;/span&gt;&lt;/p&gt;&lt;p style=&quot;margin:0px;margin-left:4px;&quot;&gt;&lt;span style=&quot;background-color: initial;&quot;&gt;+&amp;nbsp;&lt;/span&gt;&lt;span style=&quot;background-color: initial;&quot; class=&quot;hljs-title function_&quot;&gt;registrarUsuario():&lt;/span&gt;&lt;span style=&quot;background-color: initial;&quot;&gt;&amp;nbsp;Usuario&lt;/span&gt;&lt;span style=&quot;background-color: initial;&quot;&gt;&amp;nbsp;&lt;/span&gt;&lt;/p&gt;&lt;p style=&quot;margin:0px;margin-left:4px;&quot;&gt;&lt;span style=&quot;background-color: initial;&quot;&gt;+ darDeBaja(Usuario user):void&lt;/span&gt;&lt;/p&gt;&lt;p style=&quot;margin:0px;margin-left:4px;&quot;&gt;&lt;span style=&quot;background-color: initial;&quot;&gt;+ VerificarStock(monedaWallet m): boolean&lt;/span&gt;&lt;/p&gt;&lt;p style=&quot;margin:0px;margin-left:4px;&quot;&gt;&lt;span style=&quot;background-color: initial;&quot;&gt;+BuscarUsuario(idUsuario id):Usuario&lt;/span&gt;&lt;/p&gt;&lt;p style=&quot;margin:0px;margin-left:4px;&quot;&gt;&lt;span style=&quot;background-color: initial;&quot;&gt;+VerificarIdentidadUsuario(Usuario u ): boolean&lt;/span&gt;&lt;/p&gt;&lt;p style=&quot;margin:0px;margin-left:4px;&quot;&gt;&lt;span style=&quot;background-color: initial;&quot;&gt;+AlmacenarPregunta(idTicket id):void&lt;/span&gt;&lt;/p&gt;&lt;p style=&quot;margin:0px;margin-left:4px;&quot;&gt;&lt;span style=&quot;background-color: initial;&quot;&gt;+AlmacenarRespuesta(idTicket id):void&lt;/span&gt;&lt;/p&gt;&lt;p style=&quot;margin:0px;margin-left:4px;&quot;&gt;&lt;span style=&quot;background-color: initial;&quot;&gt;+ soporteASeguridad():boolean&lt;/span&gt;&lt;/p&gt;" style="verticalAlign=top;align=left;overflow=fill;html=1;whiteSpace=wrap;labelBackgroundColor=none;fillColor=#FAD9D5;strokeColor=#D0CEE2;fontColor=#1A1A1A;" parent="1" vertex="1">
          <mxGeometry x="449" y="648" width="225" height="288" as="geometry" />
        </mxCell>
        <mxCell id="-hAHwXTNGbDTIs2rf82L-55" style="edgeStyle=orthogonalEdgeStyle;rounded=0;orthogonalLoop=1;jettySize=auto;html=1;exitX=0.5;exitY=1;exitDx=0;exitDy=0;entryX=0.5;entryY=0;entryDx=0;entryDy=0;labelBackgroundColor=none;strokeColor=#09555B;fontColor=default;endArrow=diamondThin;endFill=0;" parent="1" source="-hAHwXTNGbDTIs2rf82L-34" target="-hAHwXTNGbDTIs2rf82L-33" edge="1">
          <mxGeometry relative="1" as="geometry" />
        </mxCell>
        <mxCell id="-hAHwXTNGbDTIs2rf82L-34" value="&lt;p style=&quot;margin:0px;margin-top:4px;text-align:center;&quot;&gt;Soporte&lt;/p&gt;&lt;hr size=&quot;1&quot; style=&quot;border-style:solid;&quot;&gt;&lt;p style=&quot;margin:0px;margin-left:4px;&quot;&gt;- issues: List&amp;lt;ticket&amp;gt;&lt;/p&gt;&lt;p style=&quot;margin:0px;margin-left:4px;&quot;&gt;&lt;span style=&quot;background-color: initial;&quot;&gt;- respuestasC: List&amp;lt;String&amp;gt;&lt;/span&gt;&lt;br&gt;&lt;/p&gt;&lt;hr size=&quot;1&quot; style=&quot;border-style:solid;&quot;&gt;&lt;p style=&quot;margin:0px;margin-left:4px;&quot;&gt;+desapilarTicket(Ticket t):boolean&lt;/p&gt;&lt;p style=&quot;color: rgb(0, 0, 0); margin: 0px 0px 0px 4px;&quot;&gt;&lt;font face=&quot;i2VI71uYnSgNLLqTaDuw&quot;&gt;+&amp;nbsp; ObtenerTicketId(int id):&lt;/font&gt;&lt;span style=&quot;font-family: i2VI71uYnSgNLLqTaDuw; background-color: initial;&quot;&gt;ticket&lt;/span&gt;&lt;/p&gt;&lt;p style=&quot;color: rgb(0, 0, 0); margin: 0px 0px 0px 4px;&quot;&gt;&lt;font face=&quot;i2VI71uYnSgNLLqTaDuw&quot;&gt;+ enviarRespuesta(idUsuario id):String&lt;/font&gt;&lt;/p&gt;&lt;p style=&quot;color: rgb(0, 0, 0); margin: 0px 0px 0px 4px;&quot;&gt;&lt;font face=&quot;i2VI71uYnSgNLLqTaDuw&quot;&gt;+consultarSeguridad(Seguridad sec):void&lt;/font&gt;&lt;/p&gt;" style="verticalAlign=top;align=left;overflow=fill;html=1;whiteSpace=wrap;labelBackgroundColor=none;fillColor=#FAD9D5;strokeColor=#D0CEE2;fontColor=#1A1A1A;" parent="1" vertex="1">
          <mxGeometry x="459" y="423" width="205" height="171" as="geometry" />
        </mxCell>
        <mxCell id="-hAHwXTNGbDTIs2rf82L-35" value="&lt;p style=&quot;margin:0px;margin-top:4px;text-align:center;&quot;&gt;&lt;b&gt;Ticket&lt;/b&gt;&lt;/p&gt;&lt;hr size=&quot;1&quot; style=&quot;border-style:solid;&quot;&gt;&lt;p style=&quot;margin:0px;margin-left:4px;&quot;&gt;- Asunto: String&lt;/p&gt;&lt;p style=&quot;margin:0px;margin-left:4px;&quot;&gt;-Prioridad: String&lt;/p&gt;&lt;p style=&quot;margin:0px;margin-left:4px;&quot;&gt;-Estado: boolean&lt;/p&gt;&lt;p style=&quot;margin:0px;margin-left:4px;&quot;&gt;-idTicket: int&lt;/p&gt;&lt;p style=&quot;margin:0px;margin-left:4px;&quot;&gt;-idUsuario: Long&lt;/p&gt;&lt;p style=&quot;margin:0px;margin-left:4px;&quot;&gt;- hilo: List &amp;lt;String&amp;gt;&lt;/p&gt;&lt;hr size=&quot;1&quot; style=&quot;border-style:solid;&quot;&gt;&lt;p style=&quot;margin:0px;margin-left:4px;&quot;&gt;+ getAsunto():&lt;span style=&quot;background-color: initial;&quot;&gt;String&lt;/span&gt;&lt;/p&gt;&lt;p style=&quot;margin:0px;margin-left:4px;&quot;&gt;+setAsunto(&lt;span style=&quot;background-color: initial;&quot;&gt;String A):&lt;/span&gt;&lt;span style=&quot;background-color: initial;&quot;&gt;void&lt;/span&gt;&lt;span style=&quot;background-color: initial;&quot;&gt;&amp;nbsp;&lt;/span&gt;&lt;/p&gt;&lt;p style=&quot;margin:0px;margin-left:4px;&quot;&gt;+getPrioridad():&lt;span style=&quot;background-color: initial;&quot;&gt;String&lt;/span&gt;&lt;/p&gt;&lt;p style=&quot;margin:0px;margin-left:4px;&quot;&gt;+setPrioridad(&lt;span style=&quot;background-color: initial;&quot;&gt;String pri&lt;/span&gt;&lt;span style=&quot;background-color: initial;&quot;&gt;):&lt;/span&gt;&lt;span style=&quot;background-color: initial;&quot;&gt;void&lt;/span&gt;&lt;span style=&quot;background-color: initial;&quot;&gt;&amp;nbsp;&lt;/span&gt;&lt;/p&gt;&lt;p style=&quot;margin:0px;margin-left:4px;&quot;&gt;+getEstado():&lt;span style=&quot;background-color: initial;&quot;&gt;boolean&lt;/span&gt;&lt;span style=&quot;background-color: initial;&quot;&gt;&amp;nbsp;&lt;/span&gt;&lt;/p&gt;&lt;p style=&quot;margin:0px;margin-left:4px;&quot;&gt;+setEstado(&lt;span style=&quot;background-color: initial;&quot;&gt;Boolean E&lt;/span&gt;&lt;span style=&quot;background-color: initial;&quot;&gt;):&lt;/span&gt;&lt;span style=&quot;background-color: initial;&quot;&gt;void&lt;/span&gt;&lt;span style=&quot;background-color: initial;&quot;&gt;&amp;nbsp;&lt;/span&gt;&lt;/p&gt;&lt;p style=&quot;margin:0px;margin-left:4px;&quot;&gt;+ getHilo():List&amp;lt;String&amp;gt;&lt;/p&gt;&lt;p style=&quot;margin:0px;margin-left:4px;&quot;&gt;+ getIdUsuario():Long&lt;br&gt;&lt;/p&gt;&lt;p style=&quot;margin:0px;margin-left:4px;&quot;&gt;+ agregarRespuesta(String):void&lt;/p&gt;&lt;p style=&quot;margin:0px;margin-left:4px;&quot;&gt;+ eliminarRespuesta(int id):void&lt;/p&gt;" style="verticalAlign=top;align=left;overflow=fill;html=1;whiteSpace=wrap;labelBackgroundColor=none;fillColor=#FAD9D5;strokeColor=#D0CEE2;fontColor=#1A1A1A;" parent="1" vertex="1">
          <mxGeometry x="720" y="459" width="180" height="279" as="geometry" />
        </mxCell>
        <mxCell id="-hAHwXTNGbDTIs2rf82L-39" value="" style="endArrow=block;endFill=1;html=1;edgeStyle=orthogonalEdgeStyle;align=left;verticalAlign=top;rounded=0;entryX=1;entryY=0.5;entryDx=0;entryDy=0;exitX=0.5;exitY=1;exitDx=0;exitDy=0;labelBackgroundColor=none;strokeColor=#09555B;fontColor=default;" parent="1" source="u_aKKNFCbhIiBZ6eUCo--5" target="-hAHwXTNGbDTIs2rf82L-35" edge="1">
          <mxGeometry x="0.8804" y="17" relative="1" as="geometry">
            <mxPoint x="765" y="657" as="sourcePoint" />
            <mxPoint x="925" y="657" as="targetPoint" />
            <mxPoint as="offset" />
            <Array as="points">
              <mxPoint x="932" y="423" />
              <mxPoint x="963" y="423" />
              <mxPoint x="963" y="599" />
            </Array>
          </mxGeometry>
        </mxCell>
        <mxCell id="-hAHwXTNGbDTIs2rf82L-41" value="0,1,...,n" style="text;align=center;fontStyle=1;verticalAlign=middle;spacingLeft=3;spacingRight=3;strokeColor=none;rotatable=0;points=[[0,0.5],[1,0.5]];portConstraint=eastwest;html=1;labelBackgroundColor=none;fontColor=#1A1A1A;" parent="1" vertex="1">
          <mxGeometry x="909" y="594" width="80" height="26" as="geometry" />
        </mxCell>
        <mxCell id="-hAHwXTNGbDTIs2rf82L-42" value="" style="endArrow=block;endFill=1;html=1;edgeStyle=orthogonalEdgeStyle;align=left;verticalAlign=top;rounded=0;entryX=1.002;entryY=0.598;entryDx=0;entryDy=0;entryPerimeter=0;exitX=0;exitY=0.5;exitDx=0;exitDy=0;labelBackgroundColor=none;strokeColor=#09555B;fontColor=default;" parent="1" source="-hAHwXTNGbDTIs2rf82L-35" target="-hAHwXTNGbDTIs2rf82L-34" edge="1">
          <mxGeometry x="1" y="318" relative="1" as="geometry">
            <mxPoint x="639" y="522" as="sourcePoint" />
            <mxPoint x="799" y="522" as="targetPoint" />
            <mxPoint x="-134" y="-30" as="offset" />
          </mxGeometry>
        </mxCell>
        <mxCell id="ZmTbWM2r-2BBnVFQszrl-13" style="edgeStyle=orthogonalEdgeStyle;rounded=0;orthogonalLoop=1;jettySize=auto;html=1;entryX=0;entryY=0.25;entryDx=0;entryDy=0;strokeColor=#09555B;fontColor=default;labelBackgroundColor=none;endArrow=diamondThin;endFill=0;" parent="1" source="-hAHwXTNGbDTIs2rf82L-44" target="-hAHwXTNGbDTIs2rf82L-33" edge="1">
          <mxGeometry relative="1" as="geometry" />
        </mxCell>
        <mxCell id="-hAHwXTNGbDTIs2rf82L-44" value="&lt;p style=&quot;margin:0px;margin-top:4px;text-align:center;&quot;&gt;Seguridad&lt;/p&gt;&lt;hr size=&quot;1&quot; style=&quot;border-style:solid;&quot;&gt;&lt;p style=&quot;margin:0px;margin-left:4px;&quot;&gt;-terminos_condiciones:string&lt;/p&gt;&lt;p style=&quot;margin:0px;margin-left:4px;&quot;&gt;-servicios: Servicios Handler&lt;/p&gt;&lt;p style=&quot;margin:0px;margin-left:4px;&quot;&gt;-aptoDeb: boolean&lt;/p&gt;&lt;p style=&quot;margin:0px;margin-left:4px;&quot;&gt;-metodoDeVerificacionElegido:String&lt;/p&gt;&lt;p style=&quot;margin:0px;margin-left:4px;&quot;&gt;-preguntasSeguridad: list&amp;lt;String&amp;gt;&lt;/p&gt;&lt;p style=&quot;margin:0px;margin-left:4px;&quot;&gt;-respuestaSeguridad:list &amp;lt;String&amp;gt;&lt;/p&gt;&lt;hr size=&quot;1&quot; style=&quot;border-style:solid;&quot;&gt;&lt;p style=&quot;margin:0px;margin-left:4px;&quot;&gt;+&amp;nbsp;&lt;span style=&quot;font-family: i2VI71uYnSgNLLqTaDuw; color: rgb(0, 0, 0); background-color: initial;&quot;&gt;getTyC():&lt;/span&gt;&lt;span style=&quot;color: rgb(0, 0, 0); font-family: i2VI71uYnSgNLLqTaDuw; background-color: initial;&quot;&gt;String&lt;/span&gt;&lt;span style=&quot;color: rgb(0, 0, 0); font-family: i2VI71uYnSgNLLqTaDuw; background-color: initial;&quot;&gt;&amp;nbsp;&lt;/span&gt;&lt;/p&gt;&lt;p style=&quot;color: rgb(0, 0, 0); margin: 0px 0px 0px 4px;&quot;&gt;&lt;font face=&quot;i2VI71uYnSgNLLqTaDuw&quot;&gt;+ setTyC(&lt;/font&gt;&lt;span style=&quot;font-family: i2VI71uYnSgNLLqTaDuw; background-color: initial;&quot;&gt;String TyC&lt;/span&gt;&lt;span style=&quot;font-family: i2VI71uYnSgNLLqTaDuw; background-color: initial;&quot;&gt;):&lt;/span&gt;&lt;span style=&quot;font-family: i2VI71uYnSgNLLqTaDuw; background-color: initial;&quot;&gt;void&lt;/span&gt;&lt;span style=&quot;font-family: i2VI71uYnSgNLLqTaDuw; background-color: initial;&quot;&gt;&amp;nbsp;&lt;/span&gt;&lt;/p&gt;&lt;p style=&quot;color: rgb(0, 0, 0); margin: 0px 0px 0px 4px;&quot;&gt;&lt;font face=&quot;i2VI71uYnSgNLLqTaDuw&quot;&gt;+ &lt;/font&gt;&lt;span style=&quot;font-family: i2VI71uYnSgNLLqTaDuw; background-color: initial;&quot;&gt;&amp;nbsp;getAptoDeb():&lt;/span&gt;&lt;span style=&quot;font-family: i2VI71uYnSgNLLqTaDuw; background-color: initial;&quot;&gt;boolean&lt;/span&gt;&lt;/p&gt;&lt;p style=&quot;color: rgb(0, 0, 0); margin: 0px 0px 0px 4px;&quot;&gt;&lt;font face=&quot;i2VI71uYnSgNLLqTaDuw&quot;&gt;+ setAptoDeb(&lt;/font&gt;&lt;span style=&quot;font-family: i2VI71uYnSgNLLqTaDuw; background-color: initial;&quot;&gt;boolean apto&lt;/span&gt;&lt;span style=&quot;font-family: i2VI71uYnSgNLLqTaDuw; background-color: initial;&quot;&gt;):&lt;/span&gt;&lt;span style=&quot;font-family: i2VI71uYnSgNLLqTaDuw; background-color: initial;&quot;&gt;&amp;nbsp;&lt;/span&gt;&lt;span style=&quot;font-family: i2VI71uYnSgNLLqTaDuw; background-color: initial;&quot;&gt;void&lt;/span&gt;&lt;span style=&quot;font-family: i2VI71uYnSgNLLqTaDuw; background-color: initial;&quot;&gt;&amp;nbsp;&lt;/span&gt;&lt;/p&gt;&lt;p style=&quot;color: rgb(0, 0, 0); margin: 0px 0px 0px 4px;&quot;&gt;&lt;font face=&quot;i2VI71uYnSgNLLqTaDuw&quot;&gt;+&amp;nbsp; MostrarTerminos():&lt;/font&gt;&lt;span style=&quot;font-family: i2VI71uYnSgNLLqTaDuw; background-color: initial;&quot;&gt;String&lt;/span&gt;&lt;/p&gt;&lt;p style=&quot;color: rgb(0, 0, 0); margin: 0px 0px 0px 4px;&quot;&gt;&lt;font face=&quot;i2VI71uYnSgNLLqTaDuw&quot;&gt;+&lt;/font&gt;&lt;span style=&quot;font-family: i2VI71uYnSgNLLqTaDuw; background-color: initial;&quot;&gt;&amp;nbsp;getMV():&lt;/span&gt;&lt;span style=&quot;font-family: i2VI71uYnSgNLLqTaDuw; background-color: initial;&quot;&gt;&amp;nbsp;String&lt;/span&gt;&lt;/p&gt;&lt;p style=&quot;color: rgb(0, 0, 0); margin: 0px 0px 0px 4px;&quot;&gt;&lt;font face=&quot;i2VI71uYnSgNLLqTaDuw&quot;&gt;+ setMV(&lt;/font&gt;&lt;span style=&quot;font-family: i2VI71uYnSgNLLqTaDuw; background-color: initial;&quot;&gt;String MV&lt;/span&gt;&lt;span style=&quot;font-family: i2VI71uYnSgNLLqTaDuw; background-color: initial;&quot;&gt;):&lt;/span&gt;&lt;span style=&quot;font-family: i2VI71uYnSgNLLqTaDuw; background-color: initial;&quot;&gt;void&lt;/span&gt;&lt;/p&gt;&lt;p style=&quot;color: rgb(0, 0, 0); margin: 0px 0px 0px 4px;&quot;&gt;&lt;font face=&quot;i2VI71uYnSgNLLqTaDuw&quot;&gt;+ agregarPreguntaSeguridad(): void&amp;nbsp;&lt;/font&gt;&lt;/p&gt;&lt;p style=&quot;color: rgb(0, 0, 0); margin: 0px 0px 0px 4px;&quot;&gt;&lt;font face=&quot;i2VI71uYnSgNLLqTaDuw&quot;&gt;+ agregarRespuestaSeguridad(): void&lt;/font&gt;&lt;/p&gt;" style="verticalAlign=top;align=left;overflow=fill;html=1;whiteSpace=wrap;labelBackgroundColor=none;fillColor=#FAD9D5;strokeColor=#D0CEE2;fontColor=#1A1A1A;" parent="1" vertex="1">
          <mxGeometry x="63" y="522" width="223" height="270" as="geometry" />
        </mxCell>
        <mxCell id="-hAHwXTNGbDTIs2rf82L-45" value="&lt;p style=&quot;margin:0px;margin-top:4px;text-align:center;&quot;&gt;&lt;b&gt;Crypto&lt;/b&gt;&lt;/p&gt;&lt;hr size=&quot;1&quot; style=&quot;border-style:solid;&quot;&gt;&lt;p style=&quot;margin:0px;margin-left:4px;&quot;&gt;+ calcularCotizacion(Moneda cambio):&lt;span style=&quot;background-color: initial;&quot;&gt;double&lt;/span&gt;&lt;/p&gt;&lt;p style=&quot;margin:0px;margin-left:4px;&quot;&gt;&lt;br&gt;&lt;/p&gt;" style="verticalAlign=top;align=left;overflow=fill;html=1;whiteSpace=wrap;labelBackgroundColor=none;fillColor=#FAD9D5;strokeColor=#D0CEE2;fontColor=#1A1A1A;" parent="1" vertex="1">
          <mxGeometry x="1548" y="1071" width="252" height="144" as="geometry" />
        </mxCell>
        <mxCell id="-hAHwXTNGbDTIs2rf82L-46" value="&lt;p style=&quot;margin:0px;margin-top:4px;text-align:center;&quot;&gt;&lt;b&gt;Fiat&lt;/b&gt;&lt;/p&gt;&lt;hr size=&quot;1&quot; style=&quot;border-style:solid;&quot;&gt;&lt;p style=&quot;margin:0px;margin-left:4px;&quot;&gt;+ calcularCotizacion(Moneda cambio):&lt;span style=&quot;background-color: initial;&quot;&gt;double&lt;/span&gt;&lt;span style=&quot;background-color: initial;&quot;&gt;&amp;nbsp;&lt;/span&gt;&lt;br&gt;&lt;/p&gt;" style="verticalAlign=top;align=left;overflow=fill;html=1;whiteSpace=wrap;labelBackgroundColor=none;fillColor=#FAD9D5;strokeColor=#D0CEE2;fontColor=#1A1A1A;" parent="1" vertex="1">
          <mxGeometry x="1863" y="1063" width="261" height="143" as="geometry" />
        </mxCell>
        <mxCell id="-hAHwXTNGbDTIs2rf82L-54" style="edgeStyle=orthogonalEdgeStyle;rounded=0;orthogonalLoop=1;jettySize=auto;html=1;exitX=1;exitY=0.5;exitDx=0;exitDy=0;entryX=0;entryY=0.5;entryDx=0;entryDy=0;labelBackgroundColor=none;strokeColor=#09555B;fontColor=default;" parent="1" source="-hAHwXTNGbDTIs2rf82L-53" target="u_aKKNFCbhIiBZ6eUCo--17" edge="1">
          <mxGeometry relative="1" as="geometry" />
        </mxCell>
        <mxCell id="-hAHwXTNGbDTIs2rf82L-53" value="&lt;p style=&quot;margin:0px;margin-top:4px;text-align:center;&quot;&gt;&lt;b&gt;Contacto&lt;/b&gt;&lt;/p&gt;&lt;hr size=&quot;1&quot; style=&quot;border-style:solid;&quot;&gt;&lt;p style=&quot;margin:0px;margin-left:4px;&quot;&gt;- nombre: String&lt;/p&gt;&lt;p style=&quot;margin:0px;margin-left:4px;&quot;&gt;-Alias: String&lt;/p&gt;&lt;p style=&quot;margin:0px;margin-left:4px;&quot;&gt;-Cbu/Cvu: Long&lt;/p&gt;&lt;p style=&quot;margin:0px;margin-left:4px;&quot;&gt;-NombreB:String&lt;/p&gt;&lt;hr size=&quot;1&quot; style=&quot;border-style:solid;&quot;&gt;&lt;p style=&quot;margin: 0px 0px 0px 4px;&quot;&gt;&lt;font face=&quot;i2VI71uYnSgNLLqTaDuw&quot;&gt;+ getAlias(&lt;/font&gt;&lt;span style=&quot;font-family: i2VI71uYnSgNLLqTaDuw; background-color: initial;&quot;&gt;):&amp;nbsp;&lt;/span&gt;&lt;span style=&quot;font-family: i2VI71uYnSgNLLqTaDuw; background-color: initial;&quot;&gt;String&lt;/span&gt;&lt;span style=&quot;font-family: i2VI71uYnSgNLLqTaDuw; background-color: initial;&quot;&gt;&amp;nbsp;&lt;/span&gt;&lt;/p&gt;&lt;p style=&quot;margin: 0px 0px 0px 4px;&quot;&gt;&lt;span style=&quot;font-family: i2VI71uYnSgNLLqTaDuw; background-color: initial;&quot;&gt;+ setAlias(&lt;/span&gt;&lt;span style=&quot;font-family: i2VI71uYnSgNLLqTaDuw; background-color: initial;&quot;&gt;String A&lt;/span&gt;&lt;span style=&quot;background-color: initial; font-family: i2VI71uYnSgNLLqTaDuw;&quot;&gt;):&amp;nbsp;&lt;/span&gt;&lt;span style=&quot;background-color: initial; font-family: i2VI71uYnSgNLLqTaDuw;&quot;&gt;void&lt;/span&gt;&lt;span style=&quot;background-color: initial; font-family: i2VI71uYnSgNLLqTaDuw;&quot;&gt;&amp;nbsp;&lt;/span&gt;&lt;/p&gt;&lt;p style=&quot;margin: 0px 0px 0px 4px;&quot;&gt;&lt;span style=&quot;font-family: i2VI71uYnSgNLLqTaDuw; background-color: initial;&quot;&gt;+ getCbu/Cvu():&lt;/span&gt;&lt;span style=&quot;font-family: i2VI71uYnSgNLLqTaDuw; background-color: initial;&quot;&gt;long&lt;/span&gt;&lt;/p&gt;&lt;p style=&quot;margin: 0px 0px 0px 4px;&quot;&gt;&lt;span style=&quot;font-family: i2VI71uYnSgNLLqTaDuw; background-color: initial;&quot;&gt;+ setCbu/Cvu(&lt;/span&gt;&lt;span style=&quot;font-family: i2VI71uYnSgNLLqTaDuw; background-color: initial;&quot;&gt;long Cbu&lt;/span&gt;&lt;span style=&quot;background-color: initial; font-family: i2VI71uYnSgNLLqTaDuw;&quot;&gt;):&lt;/span&gt;&lt;span style=&quot;background-color: initial; font-family: i2VI71uYnSgNLLqTaDuw;&quot;&gt;void&lt;/span&gt;&lt;span style=&quot;background-color: initial; font-family: i2VI71uYnSgNLLqTaDuw;&quot;&gt;&amp;nbsp;&lt;/span&gt;&lt;/p&gt;&lt;p style=&quot;margin: 0px 0px 0px 4px;&quot;&gt;&lt;font face=&quot;i2VI71uYnSgNLLqTaDuw&quot;&gt;+ getNombre():&lt;/font&gt;&lt;span style=&quot;font-family: i2VI71uYnSgNLLqTaDuw; background-color: initial;&quot;&gt;void&lt;/span&gt;&lt;/p&gt;&lt;p style=&quot;margin: 0px 0px 0px 4px;&quot;&gt;&lt;font face=&quot;i2VI71uYnSgNLLqTaDuw&quot;&gt;+ setNombre(&lt;/font&gt;&lt;span style=&quot;font-family: i2VI71uYnSgNLLqTaDuw; background-color: initial;&quot;&gt;String nom&lt;/span&gt;&lt;span style=&quot;font-family: i2VI71uYnSgNLLqTaDuw; background-color: initial;&quot;&gt;):&lt;/span&gt;&lt;span style=&quot;font-family: i2VI71uYnSgNLLqTaDuw; background-color: initial;&quot;&gt;void&lt;/span&gt;&lt;/p&gt;&lt;p style=&quot;margin: 0px 0px 0px 4px;&quot;&gt;&lt;font face=&quot;i2VI71uYnSgNLLqTaDuw&quot;&gt;+ getNombreB():&lt;/font&gt;&lt;span style=&quot;font-family: i2VI71uYnSgNLLqTaDuw; background-color: initial;&quot;&gt;String&lt;/span&gt;&lt;span style=&quot;font-family: i2VI71uYnSgNLLqTaDuw; background-color: initial;&quot;&gt;&amp;nbsp;&lt;/span&gt;&lt;/p&gt;&lt;p style=&quot;margin: 0px 0px 0px 4px;&quot;&gt;&lt;font face=&quot;i2VI71uYnSgNLLqTaDuw&quot;&gt;+ setNombreB(&lt;/font&gt;&lt;span style=&quot;font-family: i2VI71uYnSgNLLqTaDuw; background-color: initial;&quot;&gt;String nomB&lt;/span&gt;&lt;span style=&quot;font-family: i2VI71uYnSgNLLqTaDuw; background-color: initial;&quot;&gt;):&lt;/span&gt;&lt;span style=&quot;font-family: i2VI71uYnSgNLLqTaDuw; background-color: initial;&quot;&gt;void&lt;/span&gt;&lt;/p&gt;" style="verticalAlign=top;align=left;overflow=fill;html=1;whiteSpace=wrap;labelBackgroundColor=none;fillColor=#FAD9D5;strokeColor=#D0CEE2;fontColor=#1A1A1A;" parent="1" vertex="1">
          <mxGeometry x="827" y="765" width="180" height="252" as="geometry" />
        </mxCell>
        <mxCell id="ZmTbWM2r-2BBnVFQszrl-1" style="edgeStyle=orthogonalEdgeStyle;rounded=0;orthogonalLoop=1;jettySize=auto;html=1;exitX=0.5;exitY=1;exitDx=0;exitDy=0;entryX=0.567;entryY=0.003;entryDx=0;entryDy=0;entryPerimeter=0;labelBackgroundColor=none;strokeColor=#09555B;fontColor=default;" parent="1" source="u_aKKNFCbhIiBZ6eUCo--12" target="-hAHwXTNGbDTIs2rf82L-44" edge="1">
          <mxGeometry relative="1" as="geometry" />
        </mxCell>
        <mxCell id="ZmTbWM2r-2BBnVFQszrl-22" style="edgeStyle=orthogonalEdgeStyle;rounded=0;orthogonalLoop=1;jettySize=auto;html=1;entryX=0.5;entryY=1;entryDx=0;entryDy=0;strokeColor=#09555B;fontColor=default;labelBackgroundColor=none;" parent="1" source="ZmTbWM2r-2BBnVFQszrl-3" target="u_aKKNFCbhIiBZ6eUCo--17" edge="1">
          <mxGeometry relative="1" as="geometry" />
        </mxCell>
        <mxCell id="ZmTbWM2r-2BBnVFQszrl-3" value="&lt;p style=&quot;margin:0px;margin-top:4px;text-align:center;&quot;&gt;&lt;b&gt;&amp;lt;&amp;lt;Abstract&amp;gt;&amp;gt; Transaccion&lt;/b&gt;&lt;/p&gt;&lt;hr size=&quot;1&quot; style=&quot;border-style:solid;&quot;&gt;&lt;p style=&quot;margin:0px;margin-left:4px;&quot;&gt;- monto: monedaWallet&lt;/p&gt;&lt;p style=&quot;margin:0px;margin-left:4px;&quot;&gt;- fecha: String&lt;/p&gt;&lt;p style=&quot;margin:0px;margin-left:4px;&quot;&gt;- hora: String&lt;/p&gt;&lt;p style=&quot;margin:0px;margin-left:4px;&quot;&gt;- id: String&lt;/p&gt;&lt;p style=&quot;margin:0px;margin-left:4px;&quot;&gt;- estado: String&lt;/p&gt;&lt;hr size=&quot;1&quot; style=&quot;border-style:solid;&quot;&gt;&lt;p style=&quot;color: rgb(0, 0, 0); margin: 0px 0px 0px 4px;&quot;&gt;&lt;font face=&quot;i2VI71uYnSgNLLqTaDuw&quot;&gt;+ getMonto():&lt;/font&gt;&lt;span style=&quot;font-family: i2VI71uYnSgNLLqTaDuw; background-color: initial;&quot;&gt;String&lt;/span&gt;&lt;span style=&quot;font-family: i2VI71uYnSgNLLqTaDuw; background-color: initial;&quot;&gt;&amp;nbsp;&lt;/span&gt;&lt;/p&gt;&lt;p style=&quot;color: rgb(0, 0, 0); margin: 0px 0px 0px 4px;&quot;&gt;&lt;font face=&quot;i2VI71uYnSgNLLqTaDuw&quot;&gt;+ setMonto(&lt;/font&gt;&lt;span style=&quot;font-family: i2VI71uYnSgNLLqTaDuw; background-color: initial;&quot;&gt;double mon&lt;/span&gt;&lt;span style=&quot;font-family: i2VI71uYnSgNLLqTaDuw; background-color: initial;&quot;&gt;):&lt;/span&gt;&lt;span style=&quot;font-family: i2VI71uYnSgNLLqTaDuw; background-color: initial;&quot;&gt;&amp;nbsp;&lt;/span&gt;&lt;span style=&quot;font-family: i2VI71uYnSgNLLqTaDuw; background-color: initial;&quot;&gt;void&lt;/span&gt;&lt;span style=&quot;font-family: i2VI71uYnSgNLLqTaDuw; background-color: initial;&quot;&gt;&amp;nbsp;&lt;/span&gt;&lt;/p&gt;&lt;p style=&quot;color: rgb(0, 0, 0); margin: 0px 0px 0px 4px;&quot;&gt;&lt;font face=&quot;i2VI71uYnSgNLLqTaDuw&quot;&gt;+ getFecha():&lt;/font&gt;&lt;span style=&quot;font-family: i2VI71uYnSgNLLqTaDuw; background-color: initial;&quot;&gt;String&lt;/span&gt;&lt;/p&gt;&lt;p style=&quot;color: rgb(0, 0, 0); margin: 0px 0px 0px 4px;&quot;&gt;&lt;font face=&quot;i2VI71uYnSgNLLqTaDuw&quot;&gt;+ setFecha(&lt;/font&gt;&lt;span style=&quot;font-family: i2VI71uYnSgNLLqTaDuw; background-color: initial;&quot;&gt;String fecha&lt;/span&gt;&lt;span style=&quot;font-family: i2VI71uYnSgNLLqTaDuw; background-color: initial;&quot;&gt;):&lt;/span&gt;&lt;span style=&quot;font-family: i2VI71uYnSgNLLqTaDuw; background-color: initial;&quot;&gt;void&lt;/span&gt;&lt;/p&gt;&lt;p style=&quot;color: rgb(0, 0, 0); margin: 0px 0px 0px 4px;&quot;&gt;&lt;font face=&quot;i2VI71uYnSgNLLqTaDuw&quot;&gt;+ getHora():&lt;/font&gt;&lt;span style=&quot;font-family: i2VI71uYnSgNLLqTaDuw; background-color: initial;&quot;&gt;String&lt;/span&gt;&lt;/p&gt;&lt;p style=&quot;color: rgb(0, 0, 0); margin: 0px 0px 0px 4px;&quot;&gt;&lt;font face=&quot;i2VI71uYnSgNLLqTaDuw&quot;&gt;+ setHora(&lt;/font&gt;&lt;span style=&quot;font-family: i2VI71uYnSgNLLqTaDuw; background-color: initial;&quot;&gt;String hora&lt;/span&gt;&lt;span style=&quot;font-family: i2VI71uYnSgNLLqTaDuw; background-color: initial;&quot;&gt;):void&lt;/span&gt;&lt;/p&gt;&lt;p style=&quot;color: rgb(0, 0, 0); margin: 0px 0px 0px 4px;&quot;&gt;&lt;font face=&quot;i2VI71uYnSgNLLqTaDuw&quot;&gt;+ getEstado():&lt;/font&gt;&lt;span style=&quot;font-family: i2VI71uYnSgNLLqTaDuw; background-color: initial;&quot;&gt;&amp;nbsp;&lt;/span&gt;&lt;span style=&quot;font-family: i2VI71uYnSgNLLqTaDuw; background-color: initial;&quot;&gt;String&lt;/span&gt;&lt;span style=&quot;font-family: i2VI71uYnSgNLLqTaDuw; background-color: initial;&quot;&gt;&amp;nbsp;&lt;/span&gt;&lt;/p&gt;&lt;p style=&quot;color: rgb(0, 0, 0); margin: 0px 0px 0px 4px;&quot;&gt;&lt;font face=&quot;i2VI71uYnSgNLLqTaDuw&quot;&gt;+ setEstado(&lt;/font&gt;&lt;span style=&quot;font-family: i2VI71uYnSgNLLqTaDuw; background-color: initial;&quot;&gt;String Est&lt;/span&gt;&lt;span style=&quot;font-family: i2VI71uYnSgNLLqTaDuw; background-color: initial;&quot;&gt;):&lt;/span&gt;&lt;span style=&quot;font-family: i2VI71uYnSgNLLqTaDuw; background-color: initial;&quot;&gt;void&lt;/span&gt;&lt;span style=&quot;font-family: i2VI71uYnSgNLLqTaDuw; background-color: initial;&quot;&gt;&amp;nbsp;&lt;/span&gt;&lt;/p&gt;&lt;p style=&quot;color: rgb(0, 0, 0); margin: 0px 0px 0px 4px;&quot;&gt;&lt;font face=&quot;i2VI71uYnSgNLLqTaDuw&quot;&gt;+ getId():&lt;/font&gt;&lt;span style=&quot;font-family: i2VI71uYnSgNLLqTaDuw; background-color: initial;&quot;&gt;String&lt;/span&gt;&lt;span style=&quot;font-family: i2VI71uYnSgNLLqTaDuw; background-color: initial;&quot;&gt;&amp;nbsp;&lt;/span&gt;&lt;/p&gt;&lt;p style=&quot;color: rgb(0, 0, 0); margin: 0px 0px 0px 4px;&quot;&gt;&lt;font face=&quot;i2VI71uYnSgNLLqTaDuw&quot;&gt;+ setId(&lt;/font&gt;&lt;span style=&quot;font-family: i2VI71uYnSgNLLqTaDuw; background-color: initial;&quot;&gt;String id&lt;/span&gt;&lt;span style=&quot;font-family: i2VI71uYnSgNLLqTaDuw; background-color: initial;&quot;&gt;):&lt;/span&gt;&lt;span style=&quot;font-family: i2VI71uYnSgNLLqTaDuw; background-color: initial;&quot;&gt;void&lt;/span&gt;&lt;span style=&quot;font-family: i2VI71uYnSgNLLqTaDuw; background-color: initial;&quot;&gt;&amp;nbsp;&lt;/span&gt;&lt;/p&gt;&lt;p style=&quot;color: rgb(0, 0, 0); margin: 0px 0px 0px 4px;&quot;&gt;&lt;font face=&quot;i2VI71uYnSgNLLqTaDuw&quot;&gt;&lt;br&gt;&lt;/font&gt;&lt;/p&gt;" style="verticalAlign=top;align=left;overflow=fill;html=1;whiteSpace=wrap;labelBackgroundColor=none;fillColor=#FAD9D5;strokeColor=#D0CEE2;fontColor=#1A1A1A;" parent="1" vertex="1">
          <mxGeometry x="829" y="1116" width="188" height="270" as="geometry" />
        </mxCell>
        <mxCell id="ZmTbWM2r-2BBnVFQszrl-5" value="&lt;p style=&quot;margin:0px;margin-top:4px;text-align:center;&quot;&gt;&lt;b&gt;&amp;lt;&amp;lt;abstract&amp;gt;&amp;gt; Transferencia&lt;/b&gt;&lt;/p&gt;&lt;hr size=&quot;1&quot; style=&quot;border-style:solid;&quot;&gt;&lt;p style=&quot;margin:0px;margin-left:4px;&quot;&gt;-destinatario: String&lt;/p&gt;&lt;p style=&quot;margin:0px;margin-left:4px;&quot;&gt;-comi: long&lt;/p&gt;&lt;hr size=&quot;1&quot; style=&quot;border-style:solid;&quot;&gt;&lt;p style=&quot;margin:0px;margin-left:4px;&quot;&gt;+ double calcularCom(long C)&lt;/p&gt;&lt;p style=&quot;margin:0px;margin-left:4px;&quot;&gt;+Long calcularMonto_des()&lt;/p&gt;&lt;p style=&quot;margin:0px;margin-left:4px;&quot;&gt;+getDestinatario():String&lt;/p&gt;&lt;p style=&quot;margin:0px;margin-left:4px;&quot;&gt;+setDestinatario(String D):void&lt;/p&gt;" style="verticalAlign=top;align=left;overflow=fill;html=1;whiteSpace=wrap;strokeColor=#D0CEE2;fontColor=#1A1A1A;fillColor=#FAD9D5;labelBackgroundColor=none;" parent="1" vertex="1">
          <mxGeometry x="432" y="1476" width="162" height="162" as="geometry" />
        </mxCell>
        <mxCell id="ZmTbWM2r-2BBnVFQszrl-7" value="&lt;p style=&quot;margin:0px;margin-top:4px;text-align:center;&quot;&gt;&lt;b&gt;recepcion&lt;/b&gt;&lt;/p&gt;&lt;hr size=&quot;1&quot; style=&quot;border-style:solid;&quot;&gt;&lt;p style=&quot;margin:0px;margin-left:4px;&quot;&gt;&lt;span style=&quot;background-color: initial;&quot;&gt;- AliasI: String&lt;/span&gt;&lt;/p&gt;&lt;p style=&quot;margin: 0px 0px 0px 4px;&quot;&gt;-cbuI: long&lt;/p&gt;&lt;hr size=&quot;1&quot; style=&quot;border-style:solid;&quot;&gt;&lt;p style=&quot;margin:0px;margin-left:4px;&quot;&gt;+ calcularMonto():&lt;span style=&quot;background-color: initial;&quot;&gt;long&lt;/span&gt;&lt;span style=&quot;background-color: initial;&quot;&gt;&amp;nbsp;&lt;/span&gt;&lt;/p&gt;&lt;p style=&quot;margin:0px;margin-left:4px;&quot;&gt;+ getAliasI():String&lt;/p&gt;&lt;p style=&quot;margin:0px;margin-left:4px;&quot;&gt;+ setAliasI(String L):void&lt;/p&gt;&lt;p style=&quot;margin:0px;margin-left:4px;&quot;&gt;+ getCbuI():long&lt;/p&gt;&lt;p style=&quot;margin:0px;margin-left:4px;&quot;&gt;+set/CbuI(long C):void&lt;/p&gt;" style="verticalAlign=top;align=left;overflow=fill;html=1;whiteSpace=wrap;strokeColor=#D0CEE2;fontColor=#1A1A1A;fillColor=#FAD9D5;labelBackgroundColor=none;" parent="1" vertex="1">
          <mxGeometry x="648" y="1476" width="160" height="162" as="geometry" />
        </mxCell>
        <mxCell id="ZmTbWM2r-2BBnVFQszrl-8" value="&lt;p style=&quot;margin:0px;margin-top:4px;text-align:center;&quot;&gt;&lt;b&gt;Compra&lt;/b&gt;&lt;/p&gt;&lt;hr size=&quot;1&quot; style=&quot;border-style:solid;&quot;&gt;&lt;p style=&quot;margin:0px;margin-left:4px;&quot;&gt;&lt;span style=&quot;background-color: initial;&quot;&gt;-comi: double&lt;/span&gt;&lt;/p&gt;&lt;hr size=&quot;1&quot; style=&quot;border-style:solid;&quot;&gt;&lt;p style=&quot;margin:0px;margin-left:4px;&quot;&gt;+ calcularNM():&lt;span style=&quot;background-color: initial;&quot;&gt;&amp;nbsp;&lt;/span&gt;&lt;span style=&quot;background-color: initial;&quot;&gt;long&lt;/span&gt;&lt;span style=&quot;background-color: initial;&quot;&gt;&amp;nbsp;&lt;/span&gt;&lt;/p&gt;" style="verticalAlign=top;align=left;overflow=fill;html=1;whiteSpace=wrap;strokeColor=#D0CEE2;fontColor=#1A1A1A;fillColor=#FAD9D5;labelBackgroundColor=none;" parent="1" vertex="1">
          <mxGeometry x="847" y="1476" width="160" height="162" as="geometry" />
        </mxCell>
        <mxCell id="ZmTbWM2r-2BBnVFQszrl-9" value="&lt;p style=&quot;margin:0px;margin-top:4px;text-align:center;&quot;&gt;&lt;b&gt;Venta&lt;/b&gt;&lt;/p&gt;&lt;hr size=&quot;1&quot; style=&quot;border-style:solid;&quot;&gt;&lt;p style=&quot;margin: 0px 0px 0px 4px;&quot;&gt;&lt;span style=&quot;background-color: initial;&quot;&gt;-comi: double&lt;/span&gt;&lt;/p&gt;&lt;hr size=&quot;1&quot; style=&quot;border-style:solid;&quot;&gt;&lt;p style=&quot;margin:0px;margin-left:4px;&quot;&gt;+calcularNM():&lt;span style=&quot;background-color: initial;&quot;&gt;&amp;nbsp;&lt;/span&gt;&lt;span style=&quot;background-color: initial;&quot;&gt;long&lt;/span&gt;&lt;span style=&quot;background-color: initial;&quot;&gt;&amp;nbsp;&lt;/span&gt;&lt;br&gt;&lt;/p&gt;" style="verticalAlign=top;align=left;overflow=fill;html=1;whiteSpace=wrap;strokeColor=#D0CEE2;fontColor=#1A1A1A;fillColor=#FAD9D5;labelBackgroundColor=none;" parent="1" vertex="1">
          <mxGeometry x="1071" y="1476" width="160" height="162" as="geometry" />
        </mxCell>
        <mxCell id="ZmTbWM2r-2BBnVFQszrl-10" value="&lt;p style=&quot;margin:0px;margin-top:4px;text-align:center;&quot;&gt;&lt;b&gt;Plazo Fijo&lt;/b&gt;&lt;/p&gt;&lt;hr size=&quot;1&quot; style=&quot;border-style:solid;&quot;&gt;&lt;p style=&quot;margin:0px;margin-left:4px;&quot;&gt;- ingresa:boolean&lt;br&gt;&lt;/p&gt;&lt;p style=&quot;margin:0px;margin-left:4px;&quot;&gt;- comi: double&lt;br&gt;&lt;/p&gt;&lt;hr size=&quot;1&quot; style=&quot;border-style:solid;&quot;&gt;&lt;p style=&quot;margin:0px;margin-left:4px;&quot;&gt;+ getIngresa():boolean&lt;/p&gt;&lt;p style=&quot;margin:0px;margin-left:4px;&quot;&gt;+setIngresa(boolean I):&lt;span style=&quot;background-color: initial;&quot;&gt;void&lt;/span&gt;&lt;span style=&quot;background-color: initial;&quot;&gt;&amp;nbsp;&lt;/span&gt;&lt;/p&gt;&lt;p style=&quot;margin:0px;margin-left:4px;&quot;&gt;+ calcularInt():&lt;span style=&quot;background-color: initial;&quot;&gt;double&lt;/span&gt;&lt;span style=&quot;background-color: initial;&quot;&gt;&amp;nbsp;&lt;/span&gt;&lt;/p&gt;" style="verticalAlign=top;align=left;overflow=fill;html=1;whiteSpace=wrap;strokeColor=#D0CEE2;fontColor=#1A1A1A;fillColor=#FAD9D5;labelBackgroundColor=none;" parent="1" vertex="1">
          <mxGeometry x="1296" y="1476" width="160" height="162" as="geometry" />
        </mxCell>
        <mxCell id="ZmTbWM2r-2BBnVFQszrl-11" value="&lt;p style=&quot;margin:0px;margin-top:4px;text-align:center;&quot;&gt;&lt;b&gt;API DEFI&lt;/b&gt;&lt;/p&gt;" style="verticalAlign=top;align=left;overflow=fill;html=1;whiteSpace=wrap;strokeColor=#D0CEE2;fontColor=#1A1A1A;fillColor=#FAD9D5;labelBackgroundColor=none;" parent="1" vertex="1">
          <mxGeometry x="1590" y="1476" width="140" height="60" as="geometry" />
        </mxCell>
        <mxCell id="ZmTbWM2r-2BBnVFQszrl-12" style="edgeStyle=orthogonalEdgeStyle;rounded=0;orthogonalLoop=1;jettySize=auto;html=1;entryX=0.008;entryY=0.419;entryDx=0;entryDy=0;entryPerimeter=0;strokeColor=#09555B;fontColor=default;labelBackgroundColor=none;" parent="1" source="ZmTbWM2r-2BBnVFQszrl-10" target="ZmTbWM2r-2BBnVFQszrl-11" edge="1">
          <mxGeometry relative="1" as="geometry" />
        </mxCell>
        <mxCell id="ZmTbWM2r-2BBnVFQszrl-18" value="&lt;p style=&quot;margin:0px;margin-top:4px;text-align:center;&quot;&gt;&lt;b&gt;Api imagenes&lt;/b&gt;&lt;/p&gt;&lt;hr size=&quot;1&quot; style=&quot;border-style:solid;&quot;&gt;&lt;div style=&quot;height:2px;&quot;&gt;&lt;/div&gt;" style="verticalAlign=top;align=left;overflow=fill;html=1;whiteSpace=wrap;strokeColor=#D0CEE2;fontColor=#1A1A1A;fillColor=#FAD9D5;labelBackgroundColor=none;" parent="1" vertex="1">
          <mxGeometry x="36" y="861" width="140" height="60" as="geometry" />
        </mxCell>
        <mxCell id="ZmTbWM2r-2BBnVFQszrl-19" style="edgeStyle=orthogonalEdgeStyle;rounded=0;orthogonalLoop=1;jettySize=auto;html=1;exitX=0.5;exitY=0;exitDx=0;exitDy=0;entryX=0.399;entryY=1.008;entryDx=0;entryDy=0;entryPerimeter=0;strokeColor=#09555B;fontColor=default;labelBackgroundColor=none;" parent="1" source="ZmTbWM2r-2BBnVFQszrl-18" target="-hAHwXTNGbDTIs2rf82L-44" edge="1">
          <mxGeometry relative="1" as="geometry" />
        </mxCell>
        <mxCell id="ZmTbWM2r-2BBnVFQszrl-20" value="&lt;p style=&quot;margin:0px;margin-top:4px;text-align:center;&quot;&gt;&lt;b&gt;Api imagen Crypto&lt;/b&gt;&lt;/p&gt;" style="verticalAlign=top;align=left;overflow=fill;html=1;whiteSpace=wrap;strokeColor=#D0CEE2;fontColor=#1A1A1A;fillColor=#FAD9D5;labelBackgroundColor=none;" parent="1" vertex="1">
          <mxGeometry x="1730" y="702" width="140" height="60" as="geometry" />
        </mxCell>
        <mxCell id="ZmTbWM2r-2BBnVFQszrl-25" value="" style="endArrow=block;endFill=0;endSize=24;html=1;rounded=0;strokeColor=#09555B;fontColor=default;entryX=0.5;entryY=1;entryDx=0;entryDy=0;labelBackgroundColor=none;" parent="1" target="ZmTbWM2r-2BBnVFQszrl-3" edge="1">
          <mxGeometry width="160" relative="1" as="geometry">
            <mxPoint x="504" y="1440" as="sourcePoint" />
            <mxPoint x="943" y="1458" as="targetPoint" />
            <Array as="points">
              <mxPoint x="923" y="1440" />
            </Array>
          </mxGeometry>
        </mxCell>
        <mxCell id="ZmTbWM2r-2BBnVFQszrl-30" value="" style="endArrow=none;html=1;rounded=0;strokeColor=#09555B;fontColor=default;exitX=0.452;exitY=0.004;exitDx=0;exitDy=0;exitPerimeter=0;labelBackgroundColor=none;" parent="1" source="ZmTbWM2r-2BBnVFQszrl-5" edge="1">
          <mxGeometry relative="1" as="geometry">
            <mxPoint x="317" y="1440" as="sourcePoint" />
            <mxPoint x="504" y="1440" as="targetPoint" />
          </mxGeometry>
        </mxCell>
        <mxCell id="ZmTbWM2r-2BBnVFQszrl-31" value="" style="endArrow=none;html=1;rounded=0;strokeColor=#09555B;fontColor=default;exitX=0.418;exitY=-0.005;exitDx=0;exitDy=0;exitPerimeter=0;labelBackgroundColor=none;" parent="1" source="ZmTbWM2r-2BBnVFQszrl-7" edge="1">
          <mxGeometry relative="1" as="geometry">
            <mxPoint x="666" y="1458" as="sourcePoint" />
            <mxPoint x="715" y="1440" as="targetPoint" />
          </mxGeometry>
        </mxCell>
        <mxCell id="ZmTbWM2r-2BBnVFQszrl-32" value="" style="endArrow=none;html=1;rounded=0;strokeColor=#09555B;fontColor=default;exitX=0.418;exitY=-0.005;exitDx=0;exitDy=0;exitPerimeter=0;labelBackgroundColor=none;" parent="1" edge="1">
          <mxGeometry relative="1" as="geometry">
            <mxPoint x="918" y="1476" as="sourcePoint" />
            <mxPoint x="918" y="1441" as="targetPoint" />
          </mxGeometry>
        </mxCell>
        <mxCell id="ZmTbWM2r-2BBnVFQszrl-33" value="" style="endArrow=none;html=1;rounded=0;strokeColor=#09555B;fontColor=default;labelBackgroundColor=none;" parent="1" edge="1">
          <mxGeometry relative="1" as="geometry">
            <mxPoint x="918" y="1440" as="sourcePoint" />
            <mxPoint x="1368" y="1440" as="targetPoint" />
          </mxGeometry>
        </mxCell>
        <mxCell id="ZmTbWM2r-2BBnVFQszrl-35" value="" style="endArrow=none;html=1;rounded=0;strokeColor=#09555B;fontColor=default;labelBackgroundColor=none;" parent="1" edge="1">
          <mxGeometry relative="1" as="geometry">
            <mxPoint x="1152" y="1476" as="sourcePoint" />
            <mxPoint x="1152" y="1440" as="targetPoint" />
            <Array as="points">
              <mxPoint x="1152" y="1458" />
            </Array>
          </mxGeometry>
        </mxCell>
        <mxCell id="ZmTbWM2r-2BBnVFQszrl-36" value="" style="endArrow=none;html=1;rounded=0;strokeColor=#09555B;fontColor=default;labelBackgroundColor=none;" parent="1" edge="1">
          <mxGeometry relative="1" as="geometry">
            <mxPoint x="1368" y="1476" as="sourcePoint" />
            <mxPoint x="1368" y="1440" as="targetPoint" />
          </mxGeometry>
        </mxCell>
        <mxCell id="KoDN8rbR7t0T_RA7ty70-18" style="edgeStyle=orthogonalEdgeStyle;rounded=0;orthogonalLoop=1;jettySize=auto;html=1;exitX=0.25;exitY=1;exitDx=0;exitDy=0;entryX=0.5;entryY=0;entryDx=0;entryDy=0;labelBackgroundColor=none;strokeColor=#09555B;fontColor=default;" parent="1" source="W87Ls9l-u0OJRwiNqIiX-1" target="KoDN8rbR7t0T_RA7ty70-10" edge="1">
          <mxGeometry relative="1" as="geometry">
            <Array as="points">
              <mxPoint x="503" y="1350" />
              <mxPoint x="287" y="1350" />
            </Array>
          </mxGeometry>
        </mxCell>
        <mxCell id="M8fmNTHV3vaQ_HyWavVu-5" style="edgeStyle=orthogonalEdgeStyle;rounded=0;orthogonalLoop=1;jettySize=auto;html=1;exitX=1;exitY=1;exitDx=0;exitDy=0;entryX=0;entryY=0;entryDx=0;entryDy=0;" parent="1" edge="1">
          <mxGeometry relative="1" as="geometry">
            <mxPoint x="607.5" y="1281" as="sourcePoint" />
            <mxPoint x="846.5" y="1476" as="targetPoint" />
            <Array as="points">
              <mxPoint x="608" y="1341" />
              <mxPoint x="810" y="1341" />
              <mxPoint x="810" y="1449" />
              <mxPoint x="847" y="1449" />
            </Array>
          </mxGeometry>
        </mxCell>
        <mxCell id="W87Ls9l-u0OJRwiNqIiX-1" value="&lt;p style=&quot;margin:0px;margin-top:4px;text-align:center;&quot;&gt;&lt;b&gt;Api comision&lt;/b&gt;&lt;/p&gt;" style="verticalAlign=top;align=left;overflow=fill;html=1;whiteSpace=wrap;labelBackgroundColor=none;fillColor=#FAD9D5;strokeColor=#D0CEE2;fontColor=#1A1A1A;" parent="1" vertex="1">
          <mxGeometry x="468" y="1221" width="140" height="60" as="geometry" />
        </mxCell>
        <mxCell id="KoDN8rbR7t0T_RA7ty70-10" value="&lt;p style=&quot;margin:0px;margin-top:4px;text-align:center;&quot;&gt;&lt;b&gt;swap&lt;/b&gt;&lt;/p&gt;&lt;hr size=&quot;1&quot; style=&quot;border-style:solid;&quot;&gt;&lt;p style=&quot;margin:0px;margin-left:4px;&quot;&gt;- poseida:MonedaWallet&lt;/p&gt;&lt;p style=&quot;margin:0px;margin-left:4px;&quot;&gt;- aCambiar:Moneda&lt;/p&gt;&lt;hr size=&quot;1&quot; style=&quot;border-style:solid;&quot;&gt;&lt;p style=&quot;margin:0px;margin-left:4px;&quot;&gt;+ toString()&lt;br&gt;&lt;/p&gt;" style="verticalAlign=top;align=left;overflow=fill;html=1;whiteSpace=wrap;labelBackgroundColor=none;fillColor=#FAD9D5;strokeColor=#D0CEE2;fontColor=#1A1A1A;" parent="1" vertex="1">
          <mxGeometry x="196" y="1476" width="182" height="162" as="geometry" />
        </mxCell>
        <mxCell id="KoDN8rbR7t0T_RA7ty70-11" value="&lt;p style=&quot;margin:0px;margin-top:4px;text-align:center;&quot;&gt;&lt;b&gt;Transferencia Crypto&lt;/b&gt;&lt;/p&gt;&lt;hr size=&quot;1&quot; style=&quot;border-style:solid;&quot;&gt;&lt;p style=&quot;margin:0px;margin-left:4px;&quot;&gt;-adress: long&amp;nbsp;&lt;/p&gt;&lt;p style=&quot;margin:0px;margin-left:4px;&quot;&gt;- blockchain:&amp;nbsp;&lt;span style=&quot;background-color: initial;&quot;&gt;String&lt;/span&gt;&lt;/p&gt;&lt;hr size=&quot;1&quot; style=&quot;border-style:solid;&quot;&gt;&lt;p style=&quot;margin:0px;margin-left:4px;&quot;&gt;+ getAdress(): long&lt;/p&gt;&lt;p style=&quot;margin:0px;margin-left:4px;&quot;&gt;+ setAdress(long adress): void&lt;/p&gt;" style="verticalAlign=top;align=left;overflow=fill;html=1;whiteSpace=wrap;labelBackgroundColor=none;fillColor=#FAD9D5;strokeColor=#D0CEE2;fontColor=#1A1A1A;" parent="1" vertex="1">
          <mxGeometry x="344" y="1719" width="160" height="153" as="geometry" />
        </mxCell>
        <mxCell id="KoDN8rbR7t0T_RA7ty70-12" value="&lt;p style=&quot;margin:0px;margin-top:4px;text-align:center;&quot;&gt;&lt;b&gt;Transferencia Fiat&lt;/b&gt;&lt;/p&gt;&lt;hr size=&quot;1&quot; style=&quot;border-style:solid;&quot;&gt;&lt;p style=&quot;margin:0px;margin-left:4px;&quot;&gt;- banco:String&lt;br&gt;-codigoSWIFT:&amp;nbsp;&lt;span style=&quot;background-color: initial;&quot;&gt;String&lt;/span&gt;&lt;span style=&quot;background-color: initial;&quot;&gt;&amp;nbsp;&lt;/span&gt;&lt;br&gt;&lt;/p&gt;&lt;p style=&quot;margin:0px;margin-left:4px;&quot;&gt;&lt;span style=&quot;background-color: initial;&quot;&gt;-&lt;/span&gt;&lt;span style=&quot;background-color: initial;&quot;&gt;&amp;nbsp;numeroCuenta:&amp;nbsp;&lt;/span&gt;&lt;span style=&quot;background-color: initial;&quot;&gt;String&lt;/span&gt;&lt;/p&gt;&lt;hr size=&quot;1&quot; style=&quot;border-style:solid;&quot;&gt;&lt;p style=&quot;margin:0px;margin-left:4px;&quot;&gt;+&lt;span style=&quot;background-color: initial;&quot;&gt;getBanco(): String&lt;/span&gt;&lt;/p&gt;&lt;p style=&quot;margin: 0px 0px 0px 4px;&quot;&gt;+ setBanco(String bank): void&lt;/p&gt;&lt;p style=&quot;margin: 0px 0px 0px 4px;&quot;&gt;+getNC(): String&lt;/p&gt;&lt;p style=&quot;margin: 0px 0px 0px 4px;&quot;&gt;+ setNC(String NC): void&lt;/p&gt;" style="verticalAlign=top;align=left;overflow=fill;html=1;whiteSpace=wrap;labelBackgroundColor=none;fillColor=#FAD9D5;strokeColor=#D0CEE2;fontColor=#1A1A1A;" parent="1" vertex="1">
          <mxGeometry x="531" y="1719" width="207" height="153" as="geometry" />
        </mxCell>
        <mxCell id="JISIWDe4qFhiFwduZASn-15" value="" style="endArrow=none;html=1;edgeStyle=orthogonalEdgeStyle;rounded=0;entryX=0.5;entryY=0;entryDx=0;entryDy=0;labelBackgroundColor=none;strokeColor=#09555B;fontColor=default;" parent="1" target="-hAHwXTNGbDTIs2rf82L-46" edge="1">
          <mxGeometry relative="1" as="geometry">
            <mxPoint x="1827" y="1017" as="sourcePoint" />
            <mxPoint x="1996" y="1026" as="targetPoint" />
          </mxGeometry>
        </mxCell>
        <mxCell id="JISIWDe4qFhiFwduZASn-18" value="" style="endArrow=none;html=1;edgeStyle=orthogonalEdgeStyle;rounded=0;exitX=0.5;exitY=0;exitDx=0;exitDy=0;labelBackgroundColor=none;strokeColor=#09555B;fontColor=default;" parent="1" source="-hAHwXTNGbDTIs2rf82L-45" edge="1">
          <mxGeometry relative="1" as="geometry">
            <mxPoint x="1674" y="1017" as="sourcePoint" />
            <mxPoint x="1834" y="1017" as="targetPoint" />
            <Array as="points">
              <mxPoint x="1674" y="1017" />
            </Array>
          </mxGeometry>
        </mxCell>
        <mxCell id="JISIWDe4qFhiFwduZASn-21" value="" style="endArrow=block;endFill=0;html=1;edgeStyle=orthogonalEdgeStyle;align=left;verticalAlign=top;rounded=0;entryX=0.541;entryY=0.996;entryDx=0;entryDy=0;entryPerimeter=0;labelBackgroundColor=none;strokeColor=#09555B;fontColor=default;" parent="1" target="u_aKKNFCbhIiBZ6eUCo--27" edge="1">
          <mxGeometry x="-1" y="-63" relative="1" as="geometry">
            <mxPoint x="1832" y="1017" as="sourcePoint" />
            <mxPoint x="1888" y="1017" as="targetPoint" />
            <mxPoint x="-59" y="62" as="offset" />
          </mxGeometry>
        </mxCell>
        <mxCell id="JISIWDe4qFhiFwduZASn-26" value="" style="endArrow=none;html=1;edgeStyle=orthogonalEdgeStyle;rounded=0;exitX=0.703;exitY=0;exitDx=0;exitDy=0;exitPerimeter=0;labelBackgroundColor=none;strokeColor=#09555B;fontColor=default;" parent="1" source="KoDN8rbR7t0T_RA7ty70-10" edge="1">
          <mxGeometry relative="1" as="geometry">
            <mxPoint x="344" y="1440" as="sourcePoint" />
            <mxPoint x="504" y="1440" as="targetPoint" />
            <Array as="points">
              <mxPoint x="324" y="1440" />
            </Array>
          </mxGeometry>
        </mxCell>
        <mxCell id="JISIWDe4qFhiFwduZASn-29" value="" style="endArrow=none;html=1;edgeStyle=orthogonalEdgeStyle;rounded=0;strokeColor=#09555B;fontColor=#1A1A1A;exitX=0.5;exitY=0;exitDx=0;exitDy=0;entryX=0.5;entryY=0;entryDx=0;entryDy=0;" parent="1" source="KoDN8rbR7t0T_RA7ty70-11" target="KoDN8rbR7t0T_RA7ty70-12" edge="1">
          <mxGeometry relative="1" as="geometry">
            <mxPoint x="429" y="1693" as="sourcePoint" />
            <mxPoint x="608" y="1693" as="targetPoint" />
            <Array as="points">
              <mxPoint x="424" y="1674" />
              <mxPoint x="630" y="1674" />
              <mxPoint x="630" y="1719" />
            </Array>
          </mxGeometry>
        </mxCell>
        <mxCell id="JISIWDe4qFhiFwduZASn-32" value="" style="endArrow=block;endFill=0;html=1;edgeStyle=orthogonalEdgeStyle;align=left;verticalAlign=top;rounded=0;strokeColor=#09555B;fontColor=#1A1A1A;entryX=0.5;entryY=1;entryDx=0;entryDy=0;" parent="1" target="ZmTbWM2r-2BBnVFQszrl-5" edge="1">
          <mxGeometry x="-1" y="25" relative="1" as="geometry">
            <mxPoint x="512" y="1674" as="sourcePoint" />
            <mxPoint x="583" y="1683" as="targetPoint" />
            <mxPoint x="8" y="19" as="offset" />
          </mxGeometry>
        </mxCell>
        <mxCell id="JISIWDe4qFhiFwduZASn-33" value="" style="edgeLabel;resizable=0;html=1;align=left;verticalAlign=bottom;strokeColor=#D0CEE2;fontColor=#1A1A1A;fillColor=#FAD9D5;" parent="JISIWDe4qFhiFwduZASn-32" connectable="0" vertex="1">
          <mxGeometry x="-1" relative="1" as="geometry">
            <mxPoint x="-217" y="36" as="offset" />
          </mxGeometry>
        </mxCell>
        <mxCell id="JISIWDe4qFhiFwduZASn-35" value="&lt;p style=&quot;margin:0px;margin-top:4px;text-align:center;&quot;&gt;&lt;b&gt;Debito&lt;/b&gt;&lt;/p&gt;&lt;hr size=&quot;1&quot; style=&quot;border-style:solid;&quot;&gt;&lt;p style=&quot;margin:0px;margin-left:4px;&quot;&gt;- monedaA: String&lt;/p&gt;&lt;p style=&quot;margin:0px;margin-left:4px;&quot;&gt;- Saldo: double&lt;/p&gt;&lt;hr size=&quot;1&quot; style=&quot;border-style:solid;&quot;&gt;&lt;p style=&quot;margin:0px;margin-left:4px;&quot;&gt;+getMonedaA(): String&lt;/p&gt;&lt;p style=&quot;margin:0px;margin-left:4px;&quot;&gt;+setMonedaA(String MA):void&lt;/p&gt;&lt;p style=&quot;margin:0px;margin-left:4px;&quot;&gt;+getSaldo():double&lt;/p&gt;&lt;p style=&quot;margin:0px;margin-left:4px;&quot;&gt;+setSaldo(double S):void&lt;/p&gt;" style="verticalAlign=top;align=left;overflow=fill;html=1;whiteSpace=wrap;strokeColor=#D0CEE2;fontColor=#1A1A1A;fillColor=#FAD9D5;" parent="1" vertex="1">
          <mxGeometry x="1368" y="578" width="171" height="135" as="geometry" />
        </mxCell>
        <mxCell id="JISIWDe4qFhiFwduZASn-36" value="Credito" style="ellipse;whiteSpace=wrap;html=1;strokeColor=#D0CEE2;fontColor=#1A1A1A;fillColor=#FAD9D5;" parent="1" vertex="1">
          <mxGeometry x="1660" y="578" width="140" height="70" as="geometry" />
        </mxCell>
        <mxCell id="JISIWDe4qFhiFwduZASn-37" value="" style="endArrow=none;html=1;edgeStyle=orthogonalEdgeStyle;rounded=0;strokeColor=#09555B;fontColor=#1A1A1A;entryX=0.44;entryY=0.029;entryDx=0;entryDy=0;entryPerimeter=0;exitX=0.5;exitY=0;exitDx=0;exitDy=0;" parent="1" source="JISIWDe4qFhiFwduZASn-35" target="JISIWDe4qFhiFwduZASn-36" edge="1">
          <mxGeometry relative="1" as="geometry">
            <mxPoint x="1458" y="549" as="sourcePoint" />
            <mxPoint x="1636" y="549" as="targetPoint" />
            <Array as="points">
              <mxPoint x="1453" y="549" />
              <mxPoint x="1722" y="549" />
            </Array>
          </mxGeometry>
        </mxCell>
        <mxCell id="JISIWDe4qFhiFwduZASn-40" value="" style="endArrow=block;endFill=0;html=1;edgeStyle=orthogonalEdgeStyle;align=left;verticalAlign=top;rounded=0;strokeColor=#09555B;fontColor=#1A1A1A;entryX=0.5;entryY=1;entryDx=0;entryDy=0;" parent="1" target="u_aKKNFCbhIiBZ6eUCo--6" edge="1">
          <mxGeometry x="-0.8947" y="126" relative="1" as="geometry">
            <mxPoint x="1548" y="549" as="sourcePoint" />
            <mxPoint x="1744" y="540" as="targetPoint" />
            <Array as="points">
              <mxPoint x="1575" y="549" />
            </Array>
            <mxPoint x="118" y="126" as="offset" />
          </mxGeometry>
        </mxCell>
        <mxCell id="JISIWDe4qFhiFwduZASn-41" value="" style="edgeLabel;resizable=0;html=1;align=left;verticalAlign=bottom;strokeColor=#D0CEE2;fontColor=#1A1A1A;fillColor=#FAD9D5;" parent="JISIWDe4qFhiFwduZASn-40" connectable="0" vertex="1">
          <mxGeometry x="-1" relative="1" as="geometry">
            <mxPoint x="167" y="-9" as="offset" />
          </mxGeometry>
        </mxCell>
        <mxCell id="M8fmNTHV3vaQ_HyWavVu-1" value="" style="endArrow=block;endFill=0;html=1;edgeStyle=orthogonalEdgeStyle;align=left;verticalAlign=top;rounded=0;entryX=1.027;entryY=0.248;entryDx=0;entryDy=0;entryPerimeter=0;exitX=-0.008;exitY=0.157;exitDx=0;exitDy=0;exitPerimeter=0;" parent="1" source="u_aKKNFCbhIiBZ6eUCo--5" target="-hAHwXTNGbDTIs2rf82L-16" edge="1">
          <mxGeometry x="-0.4758" y="-113" relative="1" as="geometry">
            <mxPoint x="828" y="92" as="sourcePoint" />
            <mxPoint x="684" y="72" as="targetPoint" />
            <mxPoint as="offset" />
          </mxGeometry>
        </mxCell>
        <mxCell id="M8fmNTHV3vaQ_HyWavVu-3" style="edgeStyle=orthogonalEdgeStyle;rounded=0;orthogonalLoop=1;jettySize=auto;html=1;exitX=0.5;exitY=1;exitDx=0;exitDy=0;entryX=0.65;entryY=-0.012;entryDx=0;entryDy=0;entryPerimeter=0;" parent="1" source="W87Ls9l-u0OJRwiNqIiX-1" target="ZmTbWM2r-2BBnVFQszrl-5" edge="1">
          <mxGeometry relative="1" as="geometry" />
        </mxCell>
        <mxCell id="M8fmNTHV3vaQ_HyWavVu-4" style="edgeStyle=orthogonalEdgeStyle;rounded=0;orthogonalLoop=1;jettySize=auto;html=1;exitX=0.75;exitY=1;exitDx=0;exitDy=0;entryX=0.067;entryY=-0.016;entryDx=0;entryDy=0;entryPerimeter=0;" parent="1" source="W87Ls9l-u0OJRwiNqIiX-1" target="ZmTbWM2r-2BBnVFQszrl-7" edge="1">
          <mxGeometry relative="1" as="geometry" />
        </mxCell>
        <mxCell id="M8fmNTHV3vaQ_HyWavVu-6" value="" style="endArrow=block;endFill=1;html=1;edgeStyle=orthogonalEdgeStyle;align=left;verticalAlign=top;rounded=0;entryX=0.143;entryY=-0.018;entryDx=0;entryDy=0;entryPerimeter=0;" parent="1" target="ZmTbWM2r-2BBnVFQszrl-9" edge="1">
          <mxGeometry x="-0.8375" y="36" relative="1" as="geometry">
            <mxPoint x="702" y="1422" as="sourcePoint" />
            <mxPoint x="1114" y="1431" as="targetPoint" />
            <mxPoint as="offset" />
          </mxGeometry>
        </mxCell>
        <mxCell id="M8fmNTHV3vaQ_HyWavVu-8" value="" style="endArrow=none;html=1;edgeStyle=orthogonalEdgeStyle;rounded=0;exitX=1;exitY=0.75;exitDx=0;exitDy=0;" parent="1" source="W87Ls9l-u0OJRwiNqIiX-1" edge="1">
          <mxGeometry relative="1" as="geometry">
            <mxPoint x="639" y="1314" as="sourcePoint" />
            <mxPoint x="702" y="1422" as="targetPoint" />
          </mxGeometry>
        </mxCell>
        <mxCell id="M8fmNTHV3vaQ_HyWavVu-12" value="" style="endArrow=block;endFill=1;html=1;edgeStyle=orthogonalEdgeStyle;align=left;verticalAlign=top;rounded=0;entryX=0;entryY=0;entryDx=0;entryDy=0;" parent="1" target="ZmTbWM2r-2BBnVFQszrl-10" edge="1">
          <mxGeometry x="-1" y="74" relative="1" as="geometry">
            <mxPoint x="675" y="1431" as="sourcePoint" />
            <mxPoint x="1276" y="1431" as="targetPoint" />
            <mxPoint x="-72" y="56" as="offset" />
          </mxGeometry>
        </mxCell>
        <mxCell id="M8fmNTHV3vaQ_HyWavVu-14" value="" style="endArrow=none;html=1;edgeStyle=orthogonalEdgeStyle;rounded=0;" parent="1" edge="1">
          <mxGeometry relative="1" as="geometry">
            <mxPoint x="585" y="1359" as="sourcePoint" />
            <mxPoint x="675" y="1431" as="targetPoint" />
          </mxGeometry>
        </mxCell>
        <mxCell id="M8fmNTHV3vaQ_HyWavVu-17" value="" style="endArrow=none;html=1;edgeStyle=orthogonalEdgeStyle;rounded=0;" parent="1" edge="1">
          <mxGeometry relative="1" as="geometry">
            <mxPoint x="585" y="1281" as="sourcePoint" />
            <mxPoint x="585" y="1359" as="targetPoint" />
          </mxGeometry>
        </mxCell>
      </root>
    </mxGraphModel>
  </diagram>
</mxfile>
